<?xml version="1.0" encoding="utf-8"?>
<!-- Generator: Adobe Illustrator 27.5.0, SVG Export Plug-In . SVG Version: 6.00 Build 0)  -->
<svg version="1.1" xmlns="http://www.w3.org/2000/svg" xmlns:xlink="http://www.w3.org/1999/xlink" x="0px" y="0px"
	 viewBox="0 0 500 500" style="enable-background:new 0 0 500 500;" xml:space="preserve">
<g id="Background_Complete">
	<g>
		<rect x="416.779" y="398.494" style="fill:#EBEBEB;" width="33.122" height="0.25"/>
		<rect x="322.527" y="401.208" style="fill:#EBEBEB;" width="8.693" height="0.25"/>
		<rect x="396.586" y="389.208" style="fill:#EBEBEB;" width="19.192" height="0.25"/>
		<rect x="52.459" y="390.888" style="fill:#EBEBEB;" width="43.193" height="0.25"/>
		<rect x="104.556" y="390.888" style="fill:#EBEBEB;" width="6.333" height="0.25"/>
		<rect x="131.471" y="395.111" style="fill:#EBEBEB;" width="93.676" height="0.25"/>
		<path style="fill:#EBEBEB;" d="M237.014,337.8H43.915c-3.147,0-5.708-2.561-5.708-5.708V60.66c0-3.147,2.561-5.708,5.708-5.708
			h193.099c3.146,0,5.707,2.561,5.707,5.708v271.432C242.721,335.239,240.16,337.8,237.014,337.8z M43.915,55.203
			c-3.01,0-5.458,2.448-5.458,5.458v271.432c0,3.01,2.448,5.458,5.458,5.458h193.099c3.009,0,5.457-2.448,5.457-5.458V60.66
			c0-3.009-2.448-5.458-5.457-5.458H43.915z"/>
		<path style="fill:#EBEBEB;" d="M453.31,337.8H260.212c-3.147,0-5.707-2.561-5.707-5.708V60.66c0-3.147,2.561-5.708,5.707-5.708
			H453.31c3.148,0,5.708,2.561,5.708,5.708v271.432C459.019,335.239,456.458,337.8,453.31,337.8z M260.212,55.203
			c-3.009,0-5.457,2.448-5.457,5.458v271.432c0,3.01,2.448,5.458,5.457,5.458H453.31c3.01,0,5.458-2.448,5.458-5.458V60.66
			c0-3.009-2.448-5.458-5.458-5.458H260.212z"/>
		<rect y="382.398" style="fill:#EBEBEB;" width="500" height="0.25"/>
	</g>
	<g>
		<g>
			<rect x="78.321" y="123.616" style="fill:#E0E0E0;" width="1.651" height="128.712"/>
			<rect x="181.067" y="123.616" style="fill:#E0E0E0;" width="1.651" height="128.712"/>
		</g>
		<polygon style="fill:#EBEBEB;" points="189.183,131.708 71.856,131.708 69.38,125.931 191.658,125.931 		"/>
		<polygon style="fill:#EBEBEB;" points="189.183,139.639 71.856,139.639 69.38,133.862 191.658,133.862 		"/>
		<polygon style="fill:#EBEBEB;" points="189.183,147.57 71.856,147.57 69.38,141.794 191.658,141.794 		"/>
		<polygon style="fill:#EBEBEB;" points="189.183,155.502 71.856,155.502 69.38,149.725 191.658,149.725 		"/>
		<polygon style="fill:#EBEBEB;" points="189.183,163.433 71.856,163.433 69.38,157.656 191.658,157.656 		"/>
		<polygon style="fill:#EBEBEB;" points="189.183,171.364 71.856,171.364 69.38,165.587 191.658,165.587 		"/>
		<polygon style="fill:#EBEBEB;" points="189.183,179.296 71.856,179.296 69.38,173.519 191.658,173.519 		"/>
		<polygon style="fill:#EBEBEB;" points="189.183,187.227 71.856,187.227 69.38,181.45 191.658,181.45 		"/>
		<polygon style="fill:#EBEBEB;" points="189.183,195.158 71.856,195.158 69.38,189.381 191.658,189.381 		"/>
		<polygon style="fill:#EBEBEB;" points="189.183,203.089 71.856,203.089 69.38,197.312 191.658,197.312 		"/>
		<polygon style="fill:#EBEBEB;" points="189.183,211.02 71.856,211.02 69.38,205.243 191.658,205.243 		"/>
		<polygon style="fill:#EBEBEB;" points="189.183,218.952 71.856,218.952 69.38,213.175 191.658,213.175 		"/>
		<polygon style="fill:#EBEBEB;" points="189.183,226.883 71.856,226.883 69.38,221.106 191.658,221.106 		"/>
		<polygon style="fill:#EBEBEB;" points="189.183,234.814 71.856,234.814 69.38,229.037 191.658,229.037 		"/>
		<polygon style="fill:#EBEBEB;" points="189.183,242.745 71.856,242.745 69.38,236.969 191.658,236.969 		"/>
		<polygon style="fill:#EBEBEB;" points="189.183,250.677 71.856,250.677 69.38,244.9 191.658,244.9 		"/>
		<rect x="69.38" y="250.677" style="fill:#E0E0E0;" width="122.278" height="3.301"/>
		<rect x="65.116" y="118.696" style="fill:#E0E0E0;" width="130.806" height="7.703"/>
		<path style="fill:#E0E0E0;" d="M66.459,196.235L66.459,196.235c-0.735,0-1.331-0.596-1.331-1.331v-44.926
			c0-0.735,0.596-1.331,1.331-1.331l0,0c0.735,0,1.331,0.596,1.331,1.331v44.926C67.79,195.639,67.194,196.235,66.459,196.235z"/>
		<rect x="65.978" y="124.854" style="fill:#E0E0E0;" width="0.963" height="26.682"/>
	</g>
	<g>
		<g>
			<rect x="319.538" y="123.616" style="fill:#E0E0E0;" width="1.651" height="128.712"/>
			<rect x="422.285" y="123.616" style="fill:#E0E0E0;" width="1.651" height="128.712"/>
		</g>
		<polygon style="fill:#EBEBEB;" points="430.4,131.708 313.073,131.708 310.598,125.931 432.876,125.931 		"/>
		<polygon style="fill:#EBEBEB;" points="430.4,139.639 313.073,139.639 310.598,133.862 432.876,133.862 		"/>
		<polygon style="fill:#EBEBEB;" points="430.4,147.57 313.073,147.57 310.598,141.794 432.876,141.794 		"/>
		<polygon style="fill:#EBEBEB;" points="430.4,155.502 313.073,155.502 310.598,149.725 432.876,149.725 		"/>
		<polygon style="fill:#EBEBEB;" points="430.4,163.433 313.073,163.433 310.598,157.656 432.876,157.656 		"/>
		<polygon style="fill:#EBEBEB;" points="430.4,171.364 313.073,171.364 310.598,165.587 432.876,165.587 		"/>
		<polygon style="fill:#EBEBEB;" points="430.4,179.296 313.073,179.296 310.598,173.519 432.876,173.519 		"/>
		<polygon style="fill:#EBEBEB;" points="430.4,187.227 313.073,187.227 310.598,181.45 432.876,181.45 		"/>
		<polygon style="fill:#EBEBEB;" points="430.4,195.158 313.073,195.158 310.598,189.381 432.876,189.381 		"/>
		<polygon style="fill:#EBEBEB;" points="430.4,203.089 313.073,203.089 310.598,197.312 432.876,197.312 		"/>
		<polygon style="fill:#EBEBEB;" points="430.4,211.02 313.073,211.02 310.598,205.243 432.876,205.243 		"/>
		<polygon style="fill:#EBEBEB;" points="430.4,218.952 313.073,218.952 310.598,213.175 432.876,213.175 		"/>
		<polygon style="fill:#EBEBEB;" points="430.4,226.883 313.073,226.883 310.598,221.106 432.876,221.106 		"/>
		<polygon style="fill:#EBEBEB;" points="430.4,234.814 313.073,234.814 310.598,229.037 432.876,229.037 		"/>
		<polygon style="fill:#EBEBEB;" points="430.4,242.745 313.073,242.745 310.598,236.969 432.876,236.969 		"/>
		<polygon style="fill:#EBEBEB;" points="430.4,250.677 313.073,250.677 310.598,244.9 432.876,244.9 		"/>
		<rect x="310.598" y="250.677" style="fill:#E0E0E0;" width="122.278" height="3.301"/>
		<rect x="306.334" y="118.696" style="fill:#E0E0E0;" width="130.806" height="7.703"/>
		<path style="fill:#E0E0E0;" d="M307.677,196.235L307.677,196.235c-0.735,0-1.331-0.596-1.331-1.331v-44.926
			c0-0.735,0.596-1.331,1.331-1.331l0,0c0.735,0,1.331,0.596,1.331,1.331v44.926C309.008,195.639,308.412,196.235,307.677,196.235z"
			/>
		<rect x="307.195" y="124.854" style="fill:#E0E0E0;" width="0.963" height="26.682"/>
	</g>
	<g>
		<rect x="110.338" y="105.115" style="fill:#E0E0E0;" width="279.324" height="157.998"/>
		<path style="fill:#EBEBEB;" d="M391.111,266.965H108.889c-0.905,0-1.639-0.734-1.639-1.639v-3.325
			c0-0.905,0.734-1.639,1.639-1.639h282.222c0.905,0,1.639,0.734,1.639,1.639v3.325C392.75,266.231,392.016,266.965,391.111,266.965
			z"/>
		<rect x="116.753" y="109.915" style="fill:#FAFAFA;" width="266.493" height="151.95"/>
		<path style="fill:#E6E6E6;" d="M264.672,290.133c-4.391-4.832-8.782-9.664-13.172-14.497c0-2.89,0-5.781,0-8.671
			c0-2.124-3-2.128-3,0c0,2.89,0,5.781,0,8.671c-4.391,4.832-8.782,9.664-13.173,14.497c-1.367,1.504,0.754,3.84,2.121,2.335
			c3.684-4.054,7.367-8.108,11.051-12.162c0,3.624,0,7.248,0,10.872c0,2.124,3,2.128,3,0c0-3.624,0-7.248,0-10.872
			c3.684,4.054,7.367,8.108,11.051,12.162C263.918,293.971,266.04,291.638,264.672,290.133z"/>
		<path style="fill:#F0F0F0;" d="M395.995,112.367H104.006c-2.286,0-4.14-1.854-4.14-4.14v-6.224c0-2.286,1.854-4.14,4.14-4.14
			h291.989c2.286,0,4.14,1.854,4.14,4.14v6.224C400.135,110.513,398.281,112.367,395.995,112.367z"/>
	</g>
	<g>
		<g>
			<rect x="68.795" y="293.457" style="fill:#EBEBEB;" width="118.055" height="40.75"/>
			<rect x="68.795" y="334.207" style="fill:#EBEBEB;" width="118.055" height="40.75"/>
			<g>
				<polygon style="fill:#F0F0F0;" points="113.657,334.207 128.345,293.457 105.739,293.457 91.05,334.207 				"/>
				<polygon style="fill:#F0F0F0;" points="139.286,293.457 134.32,293.457 119.632,334.207 124.597,334.207 				"/>
			</g>
			<g>
				<polygon style="fill:#F0F0F0;" points="98.968,374.958 113.657,334.207 91.051,334.207 76.362,374.958 				"/>
				<polygon style="fill:#F0F0F0;" points="124.597,334.207 119.632,334.207 104.943,374.958 109.909,374.958 				"/>
			</g>
			
				<rect x="125.761" y="238.635" transform="matrix(-1.836970e-16 1 -1 -1.836970e-16 425.4852 169.8398)" style="fill:#E0E0E0;" width="4.123" height="118.055"/>
			
				<rect x="125.761" y="279.067" transform="matrix(-1.836970e-16 1 -1 -1.836970e-16 465.9175 210.2721)" style="fill:#E0E0E0;" width="4.123" height="118.055"/>
			<g>
				<path style="fill:#E0E0E0;" d="M130.843,319.048c0.978,0,1.771-0.793,1.771-1.771c0-0.978-0.793-1.771-1.771-1.771
					c-0.496,0-5.544,0-6.04,0c-0.978,0-1.771,0.793-1.771,1.771c0,0.978,0.793,1.771,1.771,1.771
					C125.338,319.048,130.307,319.048,130.843,319.048z"/>
				<path style="fill:#F5F5F5;" d="M130.843,318.424c0.978,0,1.771-0.793,1.771-1.771c0-0.978-0.793-1.771-1.771-1.771
					c-0.496,0-5.544,0-6.04,0c-0.978,0-1.771,0.793-1.771,1.771c0,0.978,0.793,1.771,1.771,1.771
					C125.338,318.424,130.307,318.424,130.843,318.424z"/>
			</g>
			<g>
				<path style="fill:#E0E0E0;" d="M130.843,356.665c0.978,0,1.771-0.793,1.771-1.771c0-0.978-0.793-1.771-1.771-1.771
					c-0.496,0-5.544,0-6.04,0c-0.978,0-1.771,0.793-1.771,1.771c0,0.978,0.793,1.771,1.771,1.771
					C125.338,356.665,130.307,356.665,130.843,356.665z"/>
				<path style="fill:#F5F5F5;" d="M130.843,356.041c0.978,0,1.771-0.793,1.771-1.771c0-0.978-0.793-1.771-1.771-1.771
					c-0.496,0-5.544,0-6.04,0c-0.978,0-1.771,0.793-1.771,1.771c0,0.978,0.793,1.771,1.771,1.771
					C125.338,356.041,130.307,356.041,130.843,356.041z"/>
			</g>
			<path style="fill:#F5F5F5;" d="M66.734,291.63v85.108h2.061h2.062h113.932h2.061h2.061V291.63H66.734z M184.789,372.615H70.857
				v-36.254h113.932V372.615z M184.789,332.239H70.857v-36.254h113.932V332.239z"/>
			<g>
				<rect x="190.973" y="293.457" style="fill:#EBEBEB;" width="118.055" height="40.75"/>
				<rect x="190.973" y="334.207" style="fill:#EBEBEB;" width="118.055" height="40.75"/>
				<g>
					<polygon style="fill:#F0F0F0;" points="282.504,334.207 297.193,293.457 274.587,293.457 259.898,334.207 					"/>
					<polygon style="fill:#F0F0F0;" points="308.134,293.457 303.168,293.457 288.479,334.207 293.445,334.207 					"/>
				</g>
				<g>
					<polygon style="fill:#F0F0F0;" points="267.816,374.958 282.504,334.207 259.898,334.207 245.21,374.958 					"/>
					<polygon style="fill:#F0F0F0;" points="293.445,334.207 288.479,334.207 273.791,374.958 278.757,374.958 					"/>
				</g>
				
					<rect x="247.939" y="238.635" transform="matrix(-1.836970e-16 1 -1 -1.836970e-16 547.663 47.662)" style="fill:#E0E0E0;" width="4.123" height="118.055"/>
				
					<rect x="247.939" y="279.067" transform="matrix(-1.836970e-16 1 -1 -1.836970e-16 588.0953 88.0944)" style="fill:#E0E0E0;" width="4.123" height="118.055"/>
				<g>
					<path style="fill:#E0E0E0;" d="M253.02,319.048c0.978,0,1.771-0.793,1.771-1.771c0-0.978-0.793-1.771-1.771-1.771
						c-0.496,0-5.544,0-6.04,0c-0.978,0-1.771,0.793-1.771,1.771c0,0.978,0.793,1.771,1.771,1.771
						C247.516,319.048,252.485,319.048,253.02,319.048z"/>
					<path style="fill:#F5F5F5;" d="M253.02,318.424c0.978,0,1.771-0.793,1.771-1.771c0-0.978-0.793-1.771-1.771-1.771
						c-0.496,0-5.544,0-6.04,0c-0.978,0-1.771,0.793-1.771,1.771c0,0.978,0.793,1.771,1.771,1.771
						C247.516,318.424,252.485,318.424,253.02,318.424z"/>
				</g>
				<g>
					<path style="fill:#E0E0E0;" d="M253.02,356.665c0.978,0,1.771-0.793,1.771-1.771c0-0.978-0.793-1.771-1.771-1.771
						c-0.496,0-5.544,0-6.04,0c-0.978,0-1.771,0.793-1.771,1.771c0,0.978,0.793,1.771,1.771,1.771
						C247.516,356.665,252.485,356.665,253.02,356.665z"/>
					<path style="fill:#F5F5F5;" d="M253.02,356.041c0.978,0,1.771-0.793,1.771-1.771c0-0.978-0.793-1.771-1.771-1.771
						c-0.496,0-5.544,0-6.04,0c-0.978,0-1.771,0.793-1.771,1.771c0,0.978,0.793,1.771,1.771,1.771
						C247.516,356.041,252.485,356.041,253.02,356.041z"/>
				</g>
				<path style="fill:#F5F5F5;" d="M188.912,291.63v85.108h2.061h2.061h113.932h2.061h2.061V291.63H188.912z M306.967,372.615
					H193.035v-36.254h113.932V372.615z M306.967,332.239H193.035v-36.254h113.932V332.239z"/>
			</g>
			<g>
				<rect x="313.15" y="293.457" style="fill:#EBEBEB;" width="118.055" height="40.75"/>
				<rect x="313.15" y="334.207" style="fill:#EBEBEB;" width="118.055" height="40.75"/>
				<g>
					<polygon style="fill:#F0F0F0;" points="387.908,334.207 402.596,293.457 379.99,293.457 365.302,334.207 					"/>
					<polygon style="fill:#F0F0F0;" points="413.537,293.457 408.571,293.457 393.883,334.207 398.848,334.207 					"/>
				</g>
				<g>
					<polygon style="fill:#F0F0F0;" points="373.22,374.958 387.908,334.207 365.302,334.207 350.613,374.958 					"/>
					<polygon style="fill:#F0F0F0;" points="398.849,334.207 393.883,334.207 379.194,374.958 384.16,374.958 					"/>
				</g>
				
					<rect x="370.116" y="238.635" transform="matrix(-1.836970e-16 1 -1 -1.836970e-16 669.8397 -74.5147)" style="fill:#E0E0E0;" width="4.123" height="118.055"/>
				
					<rect x="370.116" y="279.067" transform="matrix(-1.836970e-16 1 -1 -1.836970e-16 710.272 -34.0825)" style="fill:#E0E0E0;" width="4.123" height="118.055"/>
				<g>
					<path style="fill:#E0E0E0;" d="M375.197,319.048c0.978,0,1.771-0.793,1.771-1.771c0-0.978-0.793-1.771-1.771-1.771
						c-0.496,0-5.544,0-6.04,0c-0.978,0-1.771,0.793-1.771,1.771c0,0.978,0.793,1.771,1.771,1.771
						C369.693,319.048,374.662,319.048,375.197,319.048z"/>
					<path style="fill:#F5F5F5;" d="M375.197,318.424c0.978,0,1.771-0.793,1.771-1.771c0-0.978-0.793-1.771-1.771-1.771
						c-0.496,0-5.544,0-6.04,0c-0.978,0-1.771,0.793-1.771,1.771c0,0.978,0.793,1.771,1.771,1.771
						C369.693,318.424,374.662,318.424,375.197,318.424z"/>
				</g>
				<g>
					<path style="fill:#E0E0E0;" d="M375.197,356.665c0.978,0,1.771-0.793,1.771-1.771c0-0.978-0.793-1.771-1.771-1.771
						c-0.496,0-5.544,0-6.04,0c-0.978,0-1.771,0.793-1.771,1.771c0,0.978,0.793,1.771,1.771,1.771
						C369.693,356.665,374.662,356.665,375.197,356.665z"/>
					<path style="fill:#F5F5F5;" d="M375.197,356.041c0.978,0,1.771-0.793,1.771-1.771c0-0.978-0.793-1.771-1.771-1.771
						c-0.496,0-5.544,0-6.04,0c-0.978,0-1.771,0.793-1.771,1.771c0,0.978,0.793,1.771,1.771,1.771
						C369.693,356.041,374.662,356.041,375.197,356.041z"/>
				</g>
				<path style="fill:#F5F5F5;" d="M311.088,291.63v85.108h2.061h2.061h113.932h2.061h2.061V291.63H311.088z M429.143,372.615
					H315.211v-36.254h113.932V372.615z M429.143,332.239H315.211v-36.254h113.932V332.239z"/>
			</g>
		</g>
		<polygon style="fill:#E0E0E0;" points="421.454,382.87 78.546,382.87 76.761,376.738 423.239,376.738 		"/>
	</g>
</g>
<g id="Background_Simple" style="display:none;">
	<g style="display:inline;">
		<g>
			<path style="fill:#407BFF;" d="M130.326,97.268c-22.829,7.896-41.336,26.456-50.891,48.642
				c-9.556,22.186-10.474,47.643-4.375,71.016c5.082,19.474,15.762,38.541,33.316,48.384c17.294,9.697,38.365,9.08,58.084,7.02
				c19.719-2.061,39.994-5.256,59.089,0.083c29.253,8.18,50.035,34.722,78.378,45.647c27.678,10.669,60.546,4.507,84.074-13.557
				s37.746-46.93,40.331-76.481c2.585-29.551-5.903-59.531-21.346-84.858c-16.612-27.243-42.157-50.355-73.108-58.113
				C200.695,51.673,130.326,97.268,130.326,97.268z"/>
		</g>
		<g style="opacity:0.9;">
			<path style="fill:#FFFFFF;" d="M130.326,97.268c-22.829,7.896-41.336,26.456-50.891,48.642
				c-9.556,22.186-10.474,47.643-4.375,71.016c5.082,19.474,15.762,38.541,33.316,48.384c17.294,9.697,38.365,9.08,58.084,7.02
				c19.719-2.061,39.994-5.256,59.089,0.083c29.253,8.18,50.035,34.722,78.378,45.647c27.678,10.669,60.546,4.507,84.074-13.557
				s37.746-46.93,40.331-76.481c2.585-29.551-5.903-59.531-21.346-84.858c-16.612-27.243-42.157-50.355-73.108-58.113
				C200.695,51.673,130.326,97.268,130.326,97.268z"/>
		</g>
	</g>
</g>
<g id="Shadow">
	<ellipse id="_x3C_Path_x3E__1_" style="fill:#F5F5F5;" cx="250" cy="412.391" rx="193.889" ry="11.323"/>
</g>
<g id="Form">
	<g>
		<g>
			<path style="fill:#263238;" d="M132.744,240.005h221.98c6.052,0,10.528-4.906,9.999-10.957L352.792,92.68
				c-0.53-6.052-5.864-10.957-11.916-10.957h-221.98c-6.051,0-10.528,4.906-9.999,10.957l11.931,136.368
				C121.357,235.1,126.692,240.005,132.744,240.005z"/>
			<path style="opacity:0.7;fill:#FFFFFF;" d="M132.744,240.005h221.98c6.052,0,10.528-4.906,9.999-10.957L352.792,92.68
				c-0.53-6.052-5.864-10.957-11.916-10.957h-221.98c-6.051,0-10.528,4.906-9.999,10.957l11.931,136.368
				C121.357,235.1,126.692,240.005,132.744,240.005z"/>
			<g>
				<g>
					<g>
						<polygon style="fill:#407BFF;" points="132.981,226.049 349.448,226.049 337.442,88.825 120.975,88.825 						"/>
						<path style="fill:#407BFF;" d="M135.959,236.79h221.98c6.052,0,10.528-4.906,9.999-10.957L356.007,89.465
							c-0.529-6.052-5.864-10.957-11.916-10.957h-221.98c-6.051,0-10.528,4.906-9.999,10.957l11.931,136.368
							C124.572,231.884,129.908,236.79,135.959,236.79z"/>
					</g>
					<polygon style="fill:#407BFF;" points="132.981,226.049 349.448,226.049 337.442,88.825 120.975,88.825 					"/>
					<g>
						<g>
							<g>
								<polygon style="opacity:0.4;fill:#FFFFFF;" points="132.981,226.26 349.448,226.26 337.442,89.037 120.975,89.037 								
									"/>
								<polygon style="fill:#407BFF;" points="338.524,101.399 122.057,101.399 120.975,89.037 337.442,89.037 								"/>
								<polygon style="opacity:0.5;" points="338.524,101.399 122.057,101.399 120.975,89.037 337.442,89.037 								"/>
								<g>
									<path style="fill:#FFFFFF;" d="M130.119,94.123l0.097,1.111h1.943l0.068,0.78h-1.943l0.134,1.531h-0.972l-0.368-4.203
										h3.172l0.068,0.781H130.119z"/>
									<path style="fill:#FFFFFF;" d="M132.791,95.443c-0.109-1.249,0.781-2.174,2.107-2.174c1.319,0,2.377,0.919,2.487,2.174
										c0.11,1.255-0.787,2.173-2.107,2.173C133.953,97.617,132.9,96.692,132.791,95.443z M136.401,95.443
										c-0.07-0.799-0.681-1.345-1.431-1.345s-1.266,0.546-1.196,1.345c0.07,0.798,0.682,1.345,1.431,1.345
										C135.955,96.789,136.471,96.242,136.401,95.443z"/>
									<path style="fill:#FFFFFF;" d="M140.977,97.545l-0.912-1.171h-0.048h-0.846l0.102,1.171h-0.972l-0.368-4.203h1.817
										c1.121,0,1.874,0.583,1.957,1.525c0.055,0.63-0.223,1.092-0.748,1.327l1.06,1.351H140.977z M139.767,94.134h-0.792
										l0.128,1.465h0.792c0.594,0,0.869-0.276,0.83-0.732C140.685,94.404,140.361,94.134,139.767,94.134z"/>
									<path style="fill:#FFFFFF;" d="M146.532,97.545l-0.227-2.522l-1.053,2.078h-0.438l-1.407-2.023l0.216,2.468h-0.912
										l-0.368-4.203h0.804l1.8,2.612l1.318-2.612h0.798l0.379,4.203H146.532z"/>
								</g>
								<g>
									<path style="fill:#407BFF;" d="M136.24,111.195l0.081,0.925h1.622L138,112.77h-1.621l0.111,1.275h-0.811l-0.306-3.501
										h2.648l0.057,0.65H136.24z"/>
									<path style="fill:#407BFF;" d="M138.368,110.545c-0.021-0.245,0.157-0.435,0.447-0.435c0.291,0,0.502,0.18,0.523,0.42
										c0.023,0.26-0.156,0.451-0.446,0.451C138.601,110.98,138.389,110.79,138.368,110.545z M138.534,111.355h0.781l0.235,2.69
										h-0.781L138.534,111.355z"/>
									<path style="fill:#407BFF;" d="M141.707,111.315l0.063,0.72c-0.065-0.005-0.116-0.01-0.176-0.01
										c-0.431,0-0.695,0.235-0.65,0.75l0.111,1.27h-0.781l-0.235-2.69h0.746l0.031,0.355
										C140.983,111.45,141.292,111.315,141.707,111.315z"/>
									<path style="fill:#407BFF;" d="M142.136,113.795l0.211-0.56c0.254,0.155,0.628,0.26,0.959,0.26
										c0.36,0,0.487-0.095,0.474-0.245c-0.038-0.44-1.626,0.01-1.719-1.065c-0.045-0.51,0.384-0.87,1.17-0.87
										c0.37,0,0.788,0.085,1.056,0.235l-0.212,0.555c-0.278-0.15-0.547-0.2-0.792-0.2c-0.351,0-0.492,0.11-0.479,0.25
										c0.04,0.46,1.628,0.015,1.721,1.075c0.044,0.5-0.391,0.855-1.197,0.855C142.873,114.085,142.401,113.96,142.136,113.795z"
										/>
									<path style="fill:#407BFF;" d="M146.799,113.916c-0.15,0.115-0.381,0.169-0.621,0.169c-0.636,0-1.034-0.325-1.09-0.965
										l-0.097-1.105h-0.416l-0.052-0.6h0.416l-0.058-0.655h0.781l0.058,0.655h0.67l0.052,0.6h-0.67l0.096,1.095
										c0.02,0.23,0.156,0.355,0.366,0.355c0.115,0,0.228-0.035,0.307-0.1L146.799,113.916z"/>
									<path style="fill:#407BFF;" d="M151.625,110.545l0.306,3.501h-0.666l-1.933-2.126l0.186,2.126h-0.801l-0.306-3.501h0.67
										l1.928,2.126l-0.186-2.126H151.625z"/>
									<path style="fill:#407BFF;" d="M154.951,112.511l0.134,1.535h-0.731l-0.029-0.335c-0.123,0.245-0.393,0.375-0.788,0.375
										c-0.631,0-1.037-0.35-1.078-0.815c-0.042-0.475,0.265-0.805,1.086-0.805h0.621c-0.029-0.335-0.247-0.53-0.667-0.53
										c-0.285,0-0.572,0.095-0.754,0.25l-0.328-0.545c0.277-0.21,0.703-0.325,1.133-0.325
										C154.371,111.315,154.88,111.695,154.951,112.511z M154.231,113.195l-0.024-0.275h-0.536c-0.365,0-0.469,0.135-0.453,0.315
										c0.017,0.195,0.194,0.325,0.469,0.325C153.947,113.561,154.162,113.44,154.231,113.195z"/>
									<path style="fill:#407BFF;" d="M160.203,112.505l0.135,1.54h-0.781l-0.124-1.42c-0.038-0.435-0.251-0.635-0.565-0.635
										c-0.351,0-0.576,0.225-0.534,0.705l0.118,1.35h-0.781l-0.125-1.42c-0.038-0.435-0.24-0.635-0.566-0.635
										c-0.345,0-0.571,0.225-0.529,0.705l0.118,1.35h-0.781l-0.235-2.69h0.746l0.027,0.31c0.18-0.23,0.47-0.35,0.815-0.35
										c0.375,0,0.708,0.146,0.924,0.44c0.191-0.274,0.527-0.44,0.932-0.44C159.638,111.315,160.131,111.685,160.203,112.505z"/>
									<path style="fill:#407BFF;" d="M163.588,112.92h-2.037c0.104,0.335,0.408,0.54,0.818,0.54c0.285,0,0.483-0.085,0.653-0.26
										l0.454,0.451c-0.225,0.285-0.587,0.435-1.073,0.435c-0.931,0-1.588-0.585-1.658-1.385c-0.07-0.805,0.495-1.385,1.315-1.385
										c0.791,0,1.448,0.53,1.523,1.396C163.589,112.77,163.587,112.855,163.588,112.92z M161.501,112.465h1.326
										c-0.085-0.34-0.359-0.56-0.709-0.56C161.762,111.905,161.526,112.121,161.501,112.465z"/>
								</g>
								<g>
									<path style="fill:#407BFF;" d="M144.184,180.247l0.057,0.65h-2.712l-0.306-3.501h2.647l0.057,0.65h-1.842l0.066,0.76h1.626
										l0.055,0.63h-1.626l0.071,0.81H144.184z"/>
									<path style="fill:#407BFF;" d="M149.243,179.357l0.135,1.541h-0.781l-0.124-1.42c-0.038-0.435-0.25-0.635-0.565-0.635
										c-0.351,0-0.576,0.225-0.534,0.705l0.118,1.351h-0.781l-0.125-1.42c-0.038-0.435-0.24-0.635-0.565-0.635
										c-0.346,0-0.571,0.225-0.529,0.705l0.118,1.351h-0.781l-0.235-2.691h0.746l0.027,0.31c0.18-0.23,0.47-0.351,0.815-0.351
										c0.375,0,0.709,0.145,0.924,0.44c0.191-0.275,0.527-0.44,0.933-0.44C148.678,178.167,149.171,178.537,149.243,179.357z"/>
									<path style="fill:#407BFF;" d="M152.322,179.362l0.134,1.535h-0.73l-0.029-0.336c-0.124,0.246-0.393,0.376-0.789,0.376
										c-0.63,0-1.037-0.35-1.077-0.815c-0.042-0.475,0.265-0.805,1.086-0.805h0.621c-0.029-0.335-0.247-0.53-0.667-0.53
										c-0.285,0-0.572,0.096-0.754,0.25l-0.328-0.544c0.277-0.211,0.703-0.326,1.133-0.326
										C151.741,178.167,152.25,178.547,152.322,179.362z M151.601,180.047l-0.024-0.275h-0.536c-0.365,0-0.469,0.135-0.453,0.314
										c0.017,0.195,0.193,0.326,0.469,0.326C151.317,180.413,151.532,180.292,151.601,180.047z"/>
									<path style="fill:#407BFF;" d="M152.757,177.396c-0.021-0.245,0.157-0.435,0.447-0.435c0.29,0,0.501,0.18,0.523,0.419
										c0.023,0.26-0.156,0.451-0.446,0.451C152.99,177.832,152.779,177.642,152.757,177.396z M152.923,178.207h0.781l0.235,2.691
										h-0.781L152.923,178.207z"/>
									<path style="fill:#407BFF;" d="M154.339,177.186h0.781l0.325,3.711h-0.781L154.339,177.186z"/>
								</g>
								<g>
									<path style="fill:#407BFF;" d="M139.695,133.573h-1.626l-0.245,0.75h-0.831l1.255-3.501h0.801l1.873,3.501h-0.851
										L139.695,133.573z M139.386,132.958l-0.672-1.34l-0.438,1.34H139.386z"/>
									<path style="fill:#407BFF;" d="M143.622,130.612l0.324,3.711h-0.745l-0.027-0.31c-0.175,0.235-0.45,0.35-0.81,0.35
										c-0.761,0-1.394-0.54-1.468-1.385c-0.074-0.845,0.464-1.385,1.225-1.385c0.33,0,0.62,0.105,0.834,0.326l-0.114-1.306
										H143.622z M143.063,132.977c-0.04-0.465-0.365-0.745-0.751-0.745c-0.391,0-0.666,0.28-0.626,0.745
										c0.041,0.466,0.366,0.745,0.756,0.745C142.828,133.723,143.104,133.443,143.063,132.977z"/>
									<path style="fill:#407BFF;" d="M147.082,130.612l0.324,3.711h-0.745l-0.027-0.31c-0.175,0.235-0.45,0.35-0.81,0.35
										c-0.761,0-1.393-0.54-1.468-1.385c-0.074-0.845,0.464-1.385,1.225-1.385c0.33,0,0.62,0.105,0.834,0.326l-0.114-1.306
										H147.082z M146.523,132.977c-0.041-0.465-0.365-0.745-0.751-0.745c-0.391,0-0.667,0.28-0.626,0.745
										c0.041,0.466,0.366,0.745,0.756,0.745C146.288,133.723,146.564,133.443,146.523,132.977z"/>
									<path style="fill:#407BFF;" d="M149.556,131.592l0.063,0.72c-0.065-0.005-0.116-0.01-0.176-0.01
										c-0.431,0-0.695,0.236-0.65,0.751l0.111,1.27h-0.78l-0.236-2.69h0.746l0.031,0.355
										C148.832,131.727,149.141,131.592,149.556,131.592z"/>
									<path style="fill:#407BFF;" d="M152.758,133.198h-2.037c0.105,0.335,0.408,0.54,0.818,0.54c0.285,0,0.482-0.085,0.653-0.26
										l0.455,0.451c-0.225,0.285-0.587,0.435-1.073,0.435c-0.931,0-1.588-0.585-1.658-1.385c-0.07-0.805,0.495-1.385,1.315-1.385
										c0.79,0,1.448,0.53,1.523,1.395C152.76,133.048,152.757,133.133,152.758,133.198z M150.671,132.743h1.326
										c-0.085-0.34-0.359-0.56-0.71-0.56C150.932,132.183,150.696,132.398,150.671,132.743z"/>
									<path style="fill:#407BFF;" d="M153.106,134.073l0.211-0.561c0.254,0.155,0.628,0.26,0.959,0.26
										c0.36,0,0.487-0.095,0.474-0.245c-0.039-0.44-1.625,0.01-1.72-1.065c-0.044-0.51,0.384-0.87,1.17-0.87
										c0.37,0,0.788,0.085,1.056,0.235l-0.211,0.555c-0.278-0.15-0.548-0.2-0.793-0.2c-0.351,0-0.491,0.11-0.479,0.25
										c0.04,0.46,1.628,0.015,1.721,1.075c0.044,0.5-0.391,0.855-1.196,0.855C153.842,134.363,153.37,134.238,153.106,134.073z"
										/>
									<path style="fill:#407BFF;" d="M155.761,134.073l0.211-0.561c0.254,0.155,0.628,0.26,0.959,0.26
										c0.36,0,0.487-0.095,0.474-0.245c-0.039-0.44-1.626,0.01-1.72-1.065c-0.044-0.51,0.384-0.87,1.17-0.87
										c0.371,0,0.789,0.085,1.057,0.235l-0.211,0.555c-0.278-0.15-0.548-0.2-0.794-0.2c-0.35,0-0.49,0.11-0.478,0.25
										c0.04,0.46,1.628,0.015,1.72,1.075c0.044,0.5-0.39,0.855-1.196,0.855C156.497,134.363,156.026,134.238,155.761,134.073z"/>
								</g>
								<g>
									<path style="fill:#407BFF;" d="M146.298,200.686c0.068,0.78-0.475,1.265-1.411,1.265h-0.706l0.084,0.965h-0.811
										l-0.306-3.501h1.516C145.601,199.416,146.229,199.901,146.298,200.686z M145.477,200.686c-0.034-0.385-0.304-0.61-0.8-0.61
										h-0.66l0.106,1.215h0.661C145.279,201.292,145.51,201.066,145.477,200.686z"/>
									<path style="fill:#407BFF;" d="M149.233,201.381l0.134,1.535h-0.73l-0.03-0.335c-0.124,0.245-0.392,0.375-0.787,0.375
										c-0.631,0-1.037-0.35-1.078-0.815c-0.042-0.475,0.265-0.805,1.085-0.805h0.621c-0.029-0.335-0.247-0.53-0.667-0.53
										c-0.285,0-0.572,0.095-0.754,0.25l-0.328-0.545c0.277-0.21,0.703-0.325,1.133-0.325
										C148.652,200.186,149.161,200.566,149.233,201.381z M148.512,202.066l-0.024-0.275h-0.536
										c-0.365,0-0.469,0.135-0.453,0.315c0.017,0.195,0.194,0.325,0.469,0.325C148.229,202.432,148.444,202.311,148.512,202.066z
										"/>
									<path style="fill:#407BFF;" d="M149.788,202.667l0.211-0.56c0.254,0.155,0.628,0.26,0.959,0.26
										c0.36,0,0.487-0.095,0.474-0.245c-0.038-0.44-1.626,0.01-1.72-1.065c-0.044-0.51,0.384-0.87,1.17-0.87
										c0.371,0,0.789,0.085,1.057,0.235l-0.211,0.555c-0.278-0.15-0.548-0.2-0.794-0.2c-0.35,0-0.49,0.11-0.478,0.25
										c0.04,0.46,1.627,0.015,1.72,1.075c0.044,0.5-0.39,0.855-1.196,0.855C150.524,202.956,150.052,202.831,149.788,202.667z"/>
									<path style="fill:#407BFF;" d="M152.443,202.667l0.211-0.56c0.254,0.155,0.628,0.26,0.959,0.26
										c0.36,0,0.487-0.095,0.474-0.245c-0.038-0.44-1.626,0.01-1.72-1.065c-0.044-0.51,0.384-0.87,1.17-0.87
										c0.37,0,0.788,0.085,1.056,0.235l-0.212,0.555c-0.278-0.15-0.548-0.2-0.793-0.2c-0.351,0-0.491,0.11-0.479,0.25
										c0.04,0.46,1.628,0.015,1.721,1.075c0.044,0.5-0.391,0.855-1.196,0.855C153.179,202.956,152.707,202.831,152.443,202.667z"
										/>
									<path style="fill:#407BFF;" d="M159.418,200.226l-0.741,2.69h-0.75l-0.752-1.67l-0.48,1.67h-0.751l-1.207-2.69h0.736
										l0.795,1.82l0.502-1.82h0.661l0.8,1.82l0.497-1.82H159.418z"/>
									<path style="fill:#407BFF;" d="M159.622,201.571c-0.071-0.81,0.504-1.385,1.36-1.385c0.856,0,1.527,0.575,1.598,1.385
										c0.071,0.811-0.499,1.385-1.355,1.385C160.369,202.956,159.693,202.382,159.622,201.571z M161.789,201.571
										c-0.041-0.465-0.36-0.745-0.751-0.745s-0.666,0.28-0.626,0.745c0.041,0.465,0.365,0.745,0.756,0.745
										C161.559,202.316,161.83,202.036,161.789,201.571z"/>
									<path style="fill:#407BFF;" d="M164.647,200.186l0.063,0.72c-0.066-0.005-0.116-0.01-0.176-0.01
										c-0.431,0-0.695,0.235-0.65,0.751l0.111,1.27h-0.781l-0.235-2.69h0.746l0.031,0.355
										C163.923,200.321,164.232,200.186,164.647,200.186z"/>
									<path style="fill:#407BFF;" d="M167.743,199.206l0.324,3.711h-0.745l-0.027-0.31c-0.175,0.235-0.45,0.35-0.81,0.35
										c-0.761,0-1.394-0.54-1.468-1.385c-0.074-0.845,0.465-1.385,1.226-1.385c0.33,0,0.62,0.105,0.834,0.325l-0.114-1.306
										H167.743z M167.184,201.571c-0.041-0.465-0.365-0.745-0.751-0.745c-0.39,0-0.666,0.28-0.626,0.745
										c0.041,0.465,0.366,0.745,0.756,0.745C166.949,202.316,167.225,202.036,167.184,201.571z"/>
								</g>
								<g>
									<path style="fill:#407BFF;" d="M283.223,216.534h-19.737c-3.736,0-7.03-3.029-7.357-6.765l0,0
										c-0.327-3.736,2.437-6.765,6.173-6.765h19.737c3.736,0,7.03,3.029,7.357,6.765l0,0
										C289.724,213.505,286.96,216.534,283.223,216.534z"/>
									<g>
										<path style="fill:#FFFFFF;" d="M266.449,211.225l0.222-0.61c0.314,0.215,0.768,0.365,1.188,0.365
											c0.48,0,0.662-0.16,0.643-0.375c-0.057-0.655-2.055-0.205-2.169-1.505c-0.052-0.595,0.385-1.09,1.381-1.09
											c0.44,0,0.9,0.105,1.244,0.31l-0.197,0.615c-0.341-0.185-0.685-0.275-0.995-0.275c-0.48,0-0.649,0.18-0.63,0.4
											c0.057,0.645,2.054,0.2,2.167,1.485c0.051,0.585-0.39,1.085-1.391,1.085C267.356,211.63,266.78,211.465,266.449,211.225z"
											/>
										<path style="fill:#FFFFFF;" d="M272.138,210.035l0.134,1.535h-0.73l-0.029-0.335c-0.124,0.245-0.393,0.375-0.789,0.375
											c-0.63,0-1.037-0.35-1.077-0.815c-0.042-0.475,0.265-0.805,1.086-0.805h0.621c-0.029-0.335-0.247-0.53-0.667-0.53
											c-0.285,0-0.572,0.095-0.754,0.25l-0.328-0.545c0.277-0.21,0.703-0.325,1.133-0.325
											C271.558,208.839,272.067,209.22,272.138,210.035z M271.417,210.72l-0.024-0.275h-0.536c-0.365,0-0.468,0.135-0.453,0.315
											c0.017,0.195,0.193,0.325,0.469,0.325C271.134,211.085,271.348,210.965,271.417,210.72z"/>
										<path style="fill:#FFFFFF;" d="M275.362,208.88l-0.9,2.69h-0.806l-1.367-2.69h0.806l0.906,1.83l0.611-1.83H275.362z"/>
										<path style="fill:#FFFFFF;" d="M278.364,210.445h-2.037c0.104,0.336,0.407,0.54,0.818,0.54
											c0.285,0,0.483-0.085,0.653-0.26l0.454,0.451c-0.225,0.285-0.587,0.435-1.073,0.435c-0.931,0-1.588-0.585-1.658-1.385
											c-0.07-0.805,0.495-1.385,1.315-1.385c0.79,0,1.448,0.53,1.523,1.395C278.366,210.295,278.363,210.38,278.364,210.445z
											 M276.277,209.99h1.326c-0.085-0.34-0.359-0.56-0.71-0.56C276.538,209.43,276.302,209.645,276.277,209.99z"/>
									</g>
									<path style="fill:#407BFF;" d="M320.768,216.534h-19.737c-3.736,0-7.03-3.029-7.357-6.765l0,0
										c-0.327-3.736,2.437-6.765,6.173-6.765h19.737c3.736,0,7.03,3.029,7.357,6.765l0,0
										C327.268,213.505,324.504,216.534,320.768,216.534z"/>
									<g>
										<path style="fill:#FFFFFF;" d="M298.586,209.82c-0.093-1.055,0.652-1.811,1.743-1.811c0.605,0,1.13,0.22,1.496,0.621
											l-0.479,0.48c-0.259-0.27-0.566-0.41-0.916-0.41c-0.656,0-1.081,0.459-1.023,1.12c0.058,0.66,0.563,1.121,1.219,1.121
											c0.35,0,0.633-0.14,0.845-0.415l0.563,0.48c-0.295,0.405-0.781,0.625-1.392,0.625
											C299.554,211.63,298.677,210.875,298.586,209.82z"/>
										<path style="fill:#FFFFFF;" d="M302.155,210.225c-0.071-0.81,0.504-1.385,1.36-1.385c0.856,0,1.527,0.575,1.598,1.385
											c0.071,0.811-0.499,1.385-1.355,1.385C302.902,211.61,302.226,211.035,302.155,210.225z M304.323,210.225
											c-0.041-0.465-0.36-0.745-0.751-0.745c-0.391,0-0.666,0.28-0.625,0.745c0.04,0.465,0.365,0.745,0.755,0.745
											C304.092,210.97,304.363,210.69,304.323,210.225z"/>
										<path style="fill:#FFFFFF;" d="M308.367,210.03l0.135,1.54h-0.781l-0.124-1.42c-0.038-0.435-0.256-0.635-0.601-0.635
											c-0.375,0-0.625,0.23-0.582,0.725l0.116,1.331h-0.781l-0.235-2.69h0.746l0.027,0.314c0.191-0.23,0.495-0.355,0.86-0.355
											C307.782,208.839,308.295,209.21,308.367,210.03z"/>
										<path style="fill:#FFFFFF;" d="M310.929,211.44c-0.15,0.115-0.381,0.169-0.621,0.169c-0.636,0-1.034-0.325-1.09-0.965
											l-0.097-1.105h-0.415l-0.052-0.6h0.415l-0.058-0.655h0.781l0.058,0.655h0.67l0.052,0.6h-0.671l0.096,1.095
											c0.021,0.23,0.156,0.355,0.366,0.355c0.115,0,0.227-0.035,0.307-0.1L310.929,211.44z"/>
										<path style="fill:#FFFFFF;" d="M310.977,208.069c-0.021-0.245,0.157-0.435,0.448-0.435c0.29,0,0.501,0.18,0.522,0.42
											c0.023,0.26-0.156,0.451-0.446,0.451C311.211,208.505,310.999,208.314,310.977,208.069z M311.143,208.88h0.781l0.235,2.69
											h-0.781L311.143,208.88z"/>
										<path style="fill:#FFFFFF;" d="M315.502,210.03l0.135,1.54h-0.781l-0.124-1.42c-0.038-0.435-0.256-0.635-0.601-0.635
											c-0.375,0-0.625,0.23-0.582,0.725l0.116,1.331h-0.781l-0.235-2.69h0.746l0.027,0.314c0.19-0.23,0.495-0.355,0.86-0.355
											C314.917,208.839,315.43,209.21,315.502,210.03z"/>
										<path style="fill:#FFFFFF;" d="M318.816,208.88l0.235,2.69h-0.741l-0.028-0.32c-0.185,0.235-0.474,0.36-0.804,0.36
											c-0.676,0-1.185-0.38-1.257-1.21l-0.133-1.52h0.781l0.123,1.405c0.039,0.45,0.257,0.65,0.602,0.65
											c0.36,0,0.6-0.23,0.557-0.725l-0.116-1.33H318.816z"/>
										<path style="fill:#FFFFFF;" d="M322.298,210.445h-2.037c0.104,0.336,0.407,0.54,0.818,0.54
											c0.285,0,0.483-0.085,0.653-0.26l0.454,0.451c-0.225,0.285-0.587,0.435-1.073,0.435c-0.931,0-1.588-0.585-1.658-1.385
											c-0.07-0.805,0.495-1.385,1.315-1.385c0.79,0,1.448,0.53,1.523,1.395C322.299,210.295,322.297,210.38,322.298,210.445z
											 M320.211,209.99h1.326c-0.085-0.34-0.359-0.56-0.71-0.56C320.471,209.43,320.236,209.645,320.211,209.99z"/>
									</g>
								</g>
								<g>
									<path style="fill:#407BFF;" d="M242.051,179.842c-0.077-0.876,0.679-1.502,1.771-1.502c0.605,0,1.126,0.182,1.486,0.515
										l-0.486,0.398c-0.255-0.225-0.561-0.341-0.911-0.341c-0.656,0-1.087,0.382-1.04,0.93c0.048,0.548,0.546,0.93,1.202,0.93
										c0.35,0,0.635-0.116,0.851-0.344l0.555,0.398c-0.301,0.336-0.791,0.519-1.401,0.519
										C242.993,181.344,242.128,180.717,242.051,179.842z"/>
									<path style="fill:#407BFF;" d="M245.615,180.178c-0.059-0.672,0.525-1.149,1.381-1.149c0.856,0,1.518,0.478,1.577,1.149
										c0.059,0.672-0.52,1.149-1.376,1.149C246.342,181.327,245.674,180.85,245.615,180.178z M247.782,180.178
										c-0.034-0.385-0.349-0.618-0.74-0.618c-0.391,0-0.67,0.233-0.636,0.618c0.034,0.386,0.354,0.619,0.745,0.619
										C247.542,180.796,247.816,180.564,247.782,180.178z"/>
									<path style="fill:#407BFF;" d="M251.83,180.016l0.112,1.278h-0.781l-0.103-1.179c-0.032-0.361-0.246-0.527-0.592-0.527
										c-0.375,0-0.628,0.191-0.593,0.602l0.097,1.104h-0.781l-0.195-2.233h0.746l0.023,0.262c0.194-0.191,0.5-0.295,0.865-0.295
										C251.263,179.028,251.77,179.335,251.83,180.016z"/>
									<path style="fill:#407BFF;" d="M254.371,181.186c-0.152,0.095-0.383,0.141-0.624,0.141c-0.636,0-1.029-0.269-1.076-0.8
										l-0.08-0.917h-0.416l-0.043-0.498h0.415l-0.047-0.544h0.78l0.048,0.544h0.67l0.043,0.498h-0.67l0.08,0.909
										c0.017,0.19,0.151,0.294,0.361,0.294c0.115,0,0.228-0.029,0.308-0.083L254.371,181.186z"/>
									<path style="fill:#407BFF;" d="M257.09,180.02l0.111,1.274h-0.731l-0.024-0.278c-0.127,0.203-0.398,0.311-0.793,0.311
										c-0.631,0-1.032-0.29-1.065-0.676c-0.035-0.395,0.277-0.669,1.098-0.669h0.621c-0.024-0.278-0.239-0.44-0.659-0.44
										c-0.285,0-0.574,0.079-0.758,0.208l-0.32-0.453c0.28-0.174,0.707-0.27,1.138-0.27
										C256.527,179.028,257.03,179.344,257.09,180.02z M256.359,180.589l-0.02-0.229h-0.536c-0.365,0-0.471,0.112-0.458,0.262
										c0.014,0.162,0.189,0.27,0.464,0.27C256.069,180.892,256.286,180.792,256.359,180.589z"/>
									<path style="fill:#407BFF;" d="M257.635,180.178c-0.059-0.672,0.525-1.149,1.401-1.149c0.566,0,1.029,0.204,1.256,0.569
										l-0.582,0.27c-0.164-0.211-0.387-0.307-0.632-0.307c-0.395,0-0.686,0.229-0.652,0.618c0.034,0.39,0.365,0.619,0.76,0.619
										c0.245,0,0.452-0.091,0.579-0.307l0.629,0.274c-0.164,0.357-0.591,0.564-1.157,0.564
										C258.362,181.327,257.694,180.85,257.635,180.178z"/>
									<path style="fill:#407BFF;" d="M262.656,181.186c-0.152,0.095-0.383,0.141-0.624,0.141c-0.636,0-1.029-0.269-1.076-0.8
										l-0.081-0.917h-0.416l-0.043-0.498h0.415l-0.048-0.544h0.781l0.047,0.544h0.67l0.043,0.498h-0.67l0.08,0.909
										c0.017,0.19,0.151,0.294,0.361,0.294c0.115,0,0.228-0.029,0.308-0.083L262.656,181.186z"/>
									<path style="fill:#407BFF;" d="M267.532,178.39l0.254,2.905h-0.665l-1.901-1.764l0.154,1.764h-0.801l-0.254-2.905h0.671
										l1.896,1.764l-0.155-1.764H267.532z"/>
									<path style="fill:#407BFF;" d="M271.075,179.061l0.195,2.233h-0.74l-0.023-0.266c-0.189,0.195-0.48,0.298-0.81,0.298
										c-0.676,0-1.179-0.315-1.239-1.004l-0.11-1.262h0.781l0.102,1.166c0.033,0.374,0.247,0.54,0.593,0.54
										c0.36,0,0.604-0.191,0.568-0.602l-0.097-1.105H271.075z"/>
									<path style="fill:#407BFF;" d="M276.431,180.016l0.112,1.278h-0.781l-0.103-1.179c-0.032-0.361-0.241-0.527-0.557-0.527
										c-0.35,0-0.579,0.187-0.544,0.585l0.098,1.12h-0.781l-0.103-1.179c-0.032-0.361-0.231-0.527-0.557-0.527
										c-0.346,0-0.574,0.187-0.54,0.585l0.098,1.12h-0.781l-0.195-2.233h0.746l0.022,0.257c0.184-0.19,0.475-0.29,0.821-0.29
										c0.375,0,0.706,0.121,0.918,0.366c0.195-0.229,0.534-0.366,0.939-0.366C275.884,179.028,276.371,179.335,276.431,180.016z"
										/>
									<path style="fill:#407BFF;" d="M280.073,180.178c0.062,0.702-0.485,1.149-1.24,1.149c-0.36,0-0.659-0.095-0.872-0.29
										l0.022,0.257h-0.746l-0.27-3.079h0.781l0.095,1.083c0.185-0.182,0.452-0.27,0.788-0.27
										C279.387,179.028,280.012,179.477,280.073,180.178z M279.283,180.178c-0.034-0.385-0.35-0.618-0.74-0.618
										c-0.391,0-0.666,0.233-0.632,0.618c0.034,0.386,0.35,0.619,0.74,0.619C279.042,180.796,279.317,180.564,279.283,180.178z"
										/>
									<path style="fill:#407BFF;" d="M283.229,180.36h-2.037c0.1,0.278,0.399,0.449,0.81,0.449c0.285,0,0.484-0.071,0.656-0.216
										l0.448,0.373c-0.229,0.236-0.594,0.361-1.079,0.361c-0.931,0-1.579-0.485-1.637-1.149
										c-0.059-0.667,0.515-1.149,1.336-1.149c0.791,0,1.44,0.44,1.503,1.158C283.233,180.236,283.229,180.307,283.229,180.36z
										 M281.149,179.983h1.326c-0.08-0.282-0.351-0.464-0.701-0.464C281.419,179.519,281.179,179.696,281.149,179.983z"/>
									<path style="fill:#407BFF;" d="M285.317,179.028l0.052,0.598c-0.066-0.004-0.116-0.008-0.176-0.008
										c-0.431,0-0.699,0.195-0.662,0.622l0.092,1.054h-0.781l-0.195-2.233h0.746l0.026,0.295
										C284.591,179.141,284.901,179.028,285.317,179.028z"/>
								</g>
								<g>
									<path style="fill:#407BFF;" d="M139.057,155.794l0.231-0.506c0.311,0.178,0.762,0.303,1.182,0.303
										c0.48,0,0.665-0.133,0.649-0.311c-0.048-0.544-2.052-0.17-2.146-1.249c-0.044-0.494,0.401-0.905,1.397-0.905
										c0.44,0,0.898,0.087,1.239,0.257l-0.206,0.51c-0.338-0.153-0.68-0.228-0.991-0.228c-0.48,0-0.652,0.149-0.636,0.332
										c0.047,0.535,2.051,0.166,2.145,1.232c0.042,0.485-0.407,0.9-1.408,0.9C139.957,156.13,139.385,155.994,139.057,155.794z"
										/>
									<path style="fill:#407BFF;" d="M144.219,155.973c-0.152,0.095-0.383,0.141-0.624,0.141c-0.636,0-1.029-0.27-1.076-0.801
										l-0.081-0.918h-0.416l-0.043-0.498h0.415l-0.047-0.543h0.781l0.047,0.543h0.671l0.043,0.498h-0.67l0.08,0.909
										c0.017,0.191,0.151,0.294,0.361,0.294c0.115,0,0.228-0.029,0.308-0.083L144.219,155.973z"/>
									<path style="fill:#407BFF;" d="M146.938,154.807l0.111,1.274h-0.73l-0.025-0.278c-0.127,0.204-0.398,0.312-0.794,0.312
										c-0.63,0-1.031-0.291-1.065-0.676c-0.035-0.395,0.277-0.668,1.098-0.668h0.621c-0.024-0.278-0.239-0.44-0.659-0.44
										c-0.285,0-0.574,0.079-0.757,0.207l-0.32-0.452c0.28-0.174,0.708-0.27,1.138-0.27
										C146.375,153.815,146.879,154.13,146.938,154.807z M146.207,155.376l-0.02-0.229h-0.536c-0.365,0-0.471,0.112-0.457,0.262
										c0.014,0.162,0.188,0.269,0.464,0.269C145.918,155.678,146.134,155.579,146.207,155.376z"/>
									<path style="fill:#407BFF;" d="M149.479,155.973c-0.152,0.095-0.383,0.141-0.624,0.141c-0.636,0-1.029-0.27-1.076-0.801
										l-0.081-0.918h-0.415l-0.044-0.498h0.416l-0.047-0.543h0.781l0.047,0.543h0.67l0.044,0.498h-0.67l0.08,0.909
										c0.017,0.191,0.151,0.294,0.361,0.294c0.115,0,0.228-0.029,0.308-0.083L149.479,155.973z"/>
									<path style="fill:#407BFF;" d="M152.383,155.147h-2.037c0.1,0.278,0.399,0.448,0.81,0.448c0.285,0,0.484-0.07,0.656-0.216
										l0.448,0.374c-0.229,0.236-0.594,0.361-1.079,0.361c-0.931,0-1.579-0.485-1.637-1.149c-0.058-0.668,0.515-1.15,1.336-1.15
										c0.791,0,1.44,0.44,1.503,1.158C152.386,155.023,152.383,155.093,152.383,155.147z M150.302,154.77h1.326
										c-0.08-0.282-0.351-0.465-0.701-0.465C150.572,154.305,150.332,154.483,150.302,154.77z"/>
								</g>
								<g>
									<path style="fill:#407BFF;" d="M236.209,110.545h0.811l0.249,2.841h1.757l0.058,0.66h-2.567L236.209,110.545z"/>
									<path style="fill:#407BFF;" d="M241.758,112.511l0.134,1.535h-0.731l-0.029-0.335c-0.124,0.245-0.393,0.375-0.788,0.375
										c-0.631,0-1.037-0.35-1.078-0.815c-0.042-0.475,0.265-0.805,1.086-0.805h0.621c-0.029-0.335-0.246-0.53-0.667-0.53
										c-0.285,0-0.572,0.095-0.754,0.25l-0.328-0.545c0.277-0.21,0.703-0.325,1.133-0.325
										C241.178,111.315,241.687,111.695,241.758,112.511z M241.037,113.195l-0.024-0.275h-0.536
										c-0.365,0-0.469,0.135-0.453,0.315c0.017,0.195,0.194,0.325,0.469,0.325C240.754,113.561,240.969,113.44,241.037,113.195z"
										/>
									<path style="fill:#407BFF;" d="M242.313,113.795l0.211-0.56c0.254,0.155,0.628,0.26,0.959,0.26
										c0.36,0,0.487-0.095,0.474-0.245c-0.038-0.44-1.626,0.01-1.72-1.065c-0.045-0.51,0.384-0.87,1.17-0.87
										c0.371,0,0.789,0.085,1.057,0.235l-0.212,0.555c-0.278-0.15-0.548-0.2-0.793-0.2c-0.351,0-0.491,0.11-0.479,0.25
										c0.041,0.46,1.628,0.015,1.721,1.075c0.044,0.5-0.391,0.855-1.197,0.855C243.048,114.085,242.578,113.96,242.313,113.795z"
										/>
									<path style="fill:#407BFF;" d="M246.975,113.916c-0.15,0.115-0.381,0.169-0.621,0.169c-0.636,0-1.034-0.325-1.09-0.965
										l-0.097-1.105h-0.416l-0.052-0.6h0.415l-0.058-0.655h0.781l0.058,0.655h0.67l0.052,0.6h-0.67l0.096,1.095
										c0.021,0.23,0.156,0.355,0.367,0.355c0.115,0,0.227-0.035,0.306-0.1L246.975,113.916z"/>
									<path style="fill:#407BFF;" d="M251.801,110.545l0.306,3.501h-0.666l-1.933-2.126l0.186,2.126h-0.801l-0.306-3.501h0.67
										l1.928,2.126l-0.186-2.126H251.801z"/>
									<path style="fill:#407BFF;" d="M255.128,112.511l0.134,1.535h-0.73l-0.029-0.335c-0.124,0.245-0.393,0.375-0.789,0.375
										c-0.63,0-1.036-0.35-1.077-0.815c-0.042-0.475,0.265-0.805,1.086-0.805h0.621c-0.029-0.335-0.247-0.53-0.667-0.53
										c-0.285,0-0.572,0.095-0.754,0.25l-0.328-0.545c0.277-0.21,0.703-0.325,1.133-0.325
										C254.548,111.315,255.056,111.695,255.128,112.511z M254.407,113.195l-0.024-0.275h-0.536
										c-0.365,0-0.468,0.135-0.453,0.315c0.017,0.195,0.193,0.325,0.469,0.325C254.123,113.561,254.338,113.44,254.407,113.195z"
										/>
									<path style="fill:#407BFF;" d="M260.379,112.505l0.135,1.54h-0.781l-0.124-1.42c-0.038-0.435-0.25-0.635-0.566-0.635
										c-0.351,0-0.576,0.225-0.534,0.705l0.118,1.35h-0.781l-0.124-1.42c-0.038-0.435-0.241-0.635-0.566-0.635
										c-0.346,0-0.571,0.225-0.529,0.705l0.118,1.35h-0.781l-0.235-2.69h0.746l0.027,0.31c0.18-0.23,0.47-0.35,0.815-0.35
										c0.375,0,0.708,0.146,0.925,0.44c0.191-0.274,0.527-0.44,0.932-0.44C259.815,111.315,260.307,111.685,260.379,112.505z"/>
									<path style="fill:#407BFF;" d="M263.764,112.92h-2.037c0.105,0.335,0.408,0.54,0.818,0.54c0.285,0,0.483-0.085,0.653-0.26
										l0.455,0.451c-0.225,0.285-0.587,0.435-1.073,0.435c-0.931,0-1.588-0.585-1.658-1.385c-0.07-0.805,0.495-1.385,1.315-1.385
										c0.791,0,1.448,0.53,1.523,1.396C263.766,112.77,263.763,112.855,263.764,112.92z M261.677,112.465h1.326
										c-0.085-0.34-0.359-0.56-0.71-0.56C261.938,111.905,261.702,112.121,261.677,112.465z"/>
								</g>
							</g>
							<polygon style="fill:#FFFFFF;" points="230.171,125.161 136.199,125.161 135.492,117.082 229.464,117.082 							"/>
							<polygon style="fill:#FFFFFF;" points="233.832,167.009 139.86,167.009 139.153,158.93 233.125,158.93 							"/>
							<polygon style="fill:#FFFFFF;" points="235.972,191.472 142,191.472 141.294,183.393 235.266,183.393 							"/>
							<polygon style="fill:#FFFFFF;" points="237.926,213.809 143.955,213.809 143.248,205.73 237.22,205.73 							"/>
							<polygon style="fill:#FFFFFF;" points="337.026,191.472 243.054,191.472 242.347,183.393 336.319,183.393 							"/>
							<polygon style="fill:#FFFFFF;" points="332.971,145.122 137.945,145.122 137.238,137.042 332.264,137.042 							"/>
							<polygon style="fill:#FFFFFF;" points="331.225,125.161 237.253,125.161 236.546,117.082 330.518,117.082 							"/>
						</g>
						<polygon style="fill:#E0E0E0;" points="264.468,190.615 257.224,190.615 256.641,183.954 263.885,183.954 						"/>
						<g>
							<polygon style="fill:#263238;" points="262.784,186.149 260.716,188.716 258.2,186.149 							"/>
						</g>
						<g>
							<path style="fill:#263238;" d="M247.341,187.433h-0.871l0.074,0.85h-0.646l-0.074-0.85h-0.866l-0.053-0.611h0.865
								l-0.074-0.85h0.645l0.074,0.85h0.871L247.341,187.433z"/>
							<path style="fill:#263238;" d="M250.359,187.808c0.052,0.59-0.357,1.13-1.352,1.13c-0.491,0-1.008-0.135-1.37-0.375
								l0.261-0.62c0.283,0.2,0.664,0.315,1.029,0.315c0.406,0,0.641-0.164,0.616-0.45c-0.023-0.265-0.232-0.43-0.693-0.43h-0.37
								l-0.047-0.535l0.649-0.815h-1.491l-0.057-0.65h2.452l0.046,0.525l-0.712,0.9C249.96,186.902,250.314,187.292,250.359,187.808
								z"/>
							<path style="fill:#263238;" d="M253.36,188.218l0.058,0.66h-2.647l-0.046-0.525l1.24-1.275
								c0.284-0.295,0.324-0.475,0.309-0.645c-0.024-0.275-0.229-0.435-0.599-0.435c-0.3,0-0.546,0.115-0.695,0.35l-0.624-0.38
								c0.236-0.395,0.704-0.65,1.335-0.65c0.781,0,1.336,0.4,1.392,1.035c0.03,0.34-0.038,0.65-0.489,1.105l-0.739,0.761H253.36z"
								/>
						</g>
						<polygon style="fill:#263238;" points="316.541,188.916 268.778,188.916 268.536,186.149 316.299,186.149 						"/>
						<polygon style="fill:#263238;" points="192.026,188.916 144.264,188.916 144.021,186.149 191.784,186.149 						"/>
						<polygon style="fill:#263238;" points="163.976,164.353 142.115,164.353 141.872,161.586 163.734,161.586 						"/>
						<polygon style="fill:#263238;" points="160.315,122.505 138.453,122.505 138.211,119.738 160.073,119.738 						"/>
						<polygon style="fill:#263238;" points="261.796,122.505 239.935,122.505 239.693,119.738 261.554,119.738 						"/>
						<polygon style="fill:#263238;" points="312.477,142.465 140.2,142.465 139.958,139.699 312.235,139.699 						"/>
						<g>
							<path style="fill:#263238;" d="M149.04,209.958l0.8,0.414l-0.293,0.574l-0.81-0.455l0.088,0.848h-0.659l-0.068-0.855
								l-0.73,0.462l-0.387-0.574l0.728-0.414l-0.8-0.42l0.286-0.575l0.811,0.462l-0.082-0.854h0.659l0.061,0.854l0.73-0.462
								l0.394,0.575L149.04,209.958z"/>
							<path style="fill:#263238;" d="M154.059,209.958l0.8,0.414l-0.293,0.574l-0.81-0.455l0.088,0.848h-0.659l-0.068-0.855
								l-0.73,0.462l-0.387-0.574l0.727-0.414l-0.8-0.42l0.286-0.575l0.811,0.462l-0.082-0.854h0.659l0.06,0.854l0.73-0.462
								l0.393,0.575L154.059,209.958z"/>
							<path style="fill:#263238;" d="M159.078,209.958l0.8,0.414l-0.293,0.574l-0.81-0.455l0.088,0.848h-0.659l-0.068-0.855
								l-0.73,0.462l-0.387-0.574l0.728-0.414l-0.8-0.42l0.286-0.575l0.811,0.462l-0.082-0.854h0.659l0.061,0.854l0.73-0.462
								l0.394,0.575L159.078,209.958z"/>
							<path style="fill:#263238;" d="M164.097,209.958l0.8,0.414l-0.293,0.574l-0.81-0.455l0.088,0.848h-0.659l-0.068-0.855
								l-0.73,0.462l-0.387-0.574l0.727-0.414l-0.8-0.42l0.286-0.575l0.811,0.462l-0.082-0.854h0.659l0.061,0.854l0.73-0.462
								l0.393,0.575L164.097,209.958z"/>
							<path style="fill:#263238;" d="M169.116,209.958l0.8,0.414l-0.293,0.574l-0.81-0.455l0.088,0.848h-0.659l-0.068-0.855
								l-0.73,0.462l-0.387-0.574l0.727-0.414l-0.8-0.42l0.286-0.575l0.811,0.462L168,208.571h0.659l0.061,0.854l0.73-0.462
								l0.394,0.575L169.116,209.958z"/>
							<path style="fill:#263238;" d="M174.135,209.958l0.8,0.414l-0.293,0.574l-0.81-0.455l0.088,0.848h-0.659l-0.068-0.855
								l-0.73,0.462l-0.387-0.574l0.727-0.414l-0.8-0.42l0.286-0.575l0.811,0.462l-0.082-0.854h0.659l0.061,0.854l0.73-0.462
								l0.393,0.575L174.135,209.958z"/>
							<path style="fill:#263238;" d="M179.154,209.958l0.8,0.414l-0.293,0.574l-0.81-0.455l0.088,0.848h-0.659l-0.068-0.855
								l-0.73,0.462l-0.387-0.574l0.727-0.414l-0.8-0.42l0.286-0.575l0.811,0.462l-0.082-0.854h0.659l0.061,0.854l0.73-0.462
								l0.394,0.575L179.154,209.958z"/>
						</g>
						<polygon style="opacity:0.1;fill:#FFFFFF;" points="132.981,226.049 349.448,226.049 337.442,88.825 120.975,88.825 						"/>
					</g>
					<g>
						<g>
							<polygon style="opacity:0.1;fill:#FFFFFF;enable-background:new    ;" points="167.683,78.579 209.965,236.718 
								195.742,236.718 153.927,78.579 							"/>
							<polygon style="opacity:0.1;fill:#FFFFFF;enable-background:new    ;" points="145.733,78.579 188.015,236.718 
								159.802,236.718 117.987,78.579 							"/>
						</g>
					</g>
					<g>
						
							<rect x="139.017" y="74.321" transform="matrix(1 -0.0084 0.0084 1 -0.6225 1.1922)" style="fill:#407BFF;" width="6.164" height="1.276"/>
						
							<rect x="150.641" y="74.178" transform="matrix(1 -0.0084 0.0084 1 -0.6196 1.3361)" style="fill:#407BFF;" width="17.879" height="1.276"/>
					</g>
				</g>
				<path style="opacity:0.5;" d="M359.832,160.6c0.319,3.642-2.375,6.594-6.017,6.594c-3.642,0-6.852-2.952-7.171-6.594
					s2.375-6.594,6.017-6.594C356.302,154.006,359.513,156.958,359.832,160.6z"/>
			</g>
		</g>
		<path style="opacity:0.5;" d="M125.142,183.957L125.142,183.957c-0.701,0-1.32-0.568-1.381-1.27l-4.381-50.076
			c-0.061-0.701,0.457-1.27,1.159-1.27l0,0c0.701,0,1.32,0.568,1.381,1.27l4.381,50.076
			C126.362,183.388,125.843,183.957,125.142,183.957z"/>
	</g>
</g>
<g id="Plant">
	<g>
		<path style="fill:#407BFF;" d="M141.4,410.014h-20.838l-2.315-4.371c-5.625-10.622-8.655-22.425-8.843-34.443l-0.016-1.049h43.185
			l0,0c0,12.865-3.26,25.52-9.475,36.784L141.4,410.014z"/>
		<path style="opacity:0.7;fill:#FFFFFF;" d="M141.4,410.014h-20.838l-2.315-4.371c-5.625-10.622-8.655-22.425-8.843-34.443
			l-0.016-1.049h43.185l0,0c0,12.865-3.26,25.52-9.475,36.784L141.4,410.014z"/>
		<g>
			<path style="fill:#407BFF;" d="M96.373,371.009c3.917,2.638,8.482,4.023,13.037,3.954c0.548-0.008,1.113-0.042,1.606-0.315
				c0.492-0.272,0.896-0.843,0.857-1.463c-0.045-0.711-0.614-1.212-1.139-1.602c-2.933-2.18-6.124-3.909-9.457-5.142
				c-1.686-0.624-3.409-1.121-5.153-1.484c-1.4-0.291-2.896-0.974-4.311-0.961C91.543,367.048,94.32,369.626,96.373,371.009z"/>
			<g>
				<g>
					<path style="fill:#407BFF;" d="M151.932,353.469c1.954-2.506,4.765-4.127,7.699-4.441c0.171-0.018,0.358-0.028,0.498,0.084
						c0.188,0.15,0.215,0.448,0.22,0.708c0.072,3.933-1.123,7.879-3.311,10.93c-1.009,1.407-2.267,2.656-3.79,3.204
						c-1.102,0.396-2.417,0.392-3.466-0.207c-1.052-0.601-0.86-1.46-0.752-2.644C149.286,358.29,150.277,355.592,151.932,353.469z"
						/>
					<path style="opacity:0.2;" d="M151.932,353.469c1.954-2.506,4.765-4.127,7.699-4.441c0.171-0.018,0.358-0.028,0.498,0.084
						c0.188,0.15,0.215,0.448,0.22,0.708c0.072,3.933-1.123,7.879-3.311,10.93c-1.009,1.407-2.267,2.656-3.79,3.204
						c-1.102,0.396-2.417,0.392-3.466-0.207c-1.052-0.601-0.86-1.46-0.752-2.644C149.286,358.29,150.277,355.592,151.932,353.469z"
						/>
				</g>
				<g>
					<path style="fill:#407BFF;" d="M133.084,355.256c1.447-2.585,2.508-5.91,2.555-9.43c0.04-2.951-0.633-5.832-1.598-8.316
						c-0.965-2.484-2.215-4.625-3.457-6.747c-0.403,6.395-0.52,12.839-0.349,19.263c0.036,1.364,0.094,2.778,0.488,3.979
						c0.394,1.201,1.221,2.125,2.027,1.826L133.084,355.256z"/>
				</g>
				<g>
					<path style="fill:#407BFF;" d="M138.673,335.701c-2.726,4.031-4.439,9.878-4.662,15.911c-0.079,2.132,0.035,4.357,0.663,6.223
						c0.628,1.866,1.864,3.287,3.151,3.093c1.344-0.203,2.384-2.011,3.143-3.855c1.261-3.065,2.793-7.437,2.075-11.214
						C142.273,341.818,140.752,338.197,138.673,335.701z"/>
					<path style="opacity:0.1;" d="M138.673,335.701c-2.726,4.031-4.439,9.878-4.662,15.911c-0.079,2.132,0.035,4.357,0.663,6.223
						c0.628,1.866,1.864,3.287,3.151,3.093c1.344-0.203,2.384-2.011,3.143-3.855c1.261-3.065,2.793-7.437,2.075-11.214
						C142.273,341.818,140.752,338.197,138.673,335.701z"/>
				</g>
				<g>
					<path style="fill:#407BFF;" d="M146.945,358.189c2.224-2.072,3.133-5.542,3.033-8.807c-0.1-3.264-1.072-6.402-2.033-9.481
						c-2.168,2.973-3.936,6.323-5.222,9.896c-0.493,1.369-0.92,2.799-0.949,4.277c-0.029,1.478,0.389,3.026,1.359,4.012
						c0.971,0.986,2.546,1.25,3.597,0.377c-0.124,0.074-0.248,0.147-0.372,0.221L146.945,358.189z"/>
				</g>
				<g style="opacity:0.2;">
					<path d="M146.945,358.189c2.224-2.072,3.133-5.542,3.033-8.807c-0.1-3.264-1.072-6.402-2.033-9.481
						c-2.168,2.973-3.936,6.323-5.222,9.896c-0.493,1.369-0.92,2.799-0.949,4.277c-0.029,1.478,0.389,3.026,1.359,4.012
						c0.971,0.986,2.546,1.25,3.597,0.377c-0.124,0.074-0.248,0.147-0.372,0.221L146.945,358.189z"/>
				</g>
				<g>
					<g>
						<path style="fill:#407BFF;" d="M152.018,345.382c0.555,4.031,1.1,8.16,0.419,12.167c-0.681,4.006-2.837,7.934-6.209,9.347
							c-1.403,0.588-3.208,0.594-4.149-0.725c-0.633-0.887-0.696-2.164-0.411-3.259c0.285-1.095,0.87-2.052,1.445-2.988
							c2.691-4.374,8.297-14.977,8.868-14.532L152.018,345.382z"/>
					</g>
					<g>
						<path style="fill:#407BFF;" d="M152.018,345.382c0.555,4.031,1.1,8.16,0.419,12.167c-0.681,4.006-2.837,7.934-6.209,9.347
							c-1.403,0.588-3.208,0.594-4.149-0.725c-0.633-0.887-0.696-2.164-0.411-3.259c0.285-1.095,0.87-2.052,1.445-2.988
							c2.691-4.374,8.297-14.977,8.868-14.532L152.018,345.382z"/>
					</g>
					<g style="opacity:0.1;">
						<path d="M152.018,345.382c0.555,4.031,1.1,8.16,0.419,12.167c-0.681,4.006-2.837,7.934-6.209,9.347
							c-1.403,0.588-3.208,0.594-4.149-0.725c-0.633-0.887-0.696-2.164-0.411-3.259c0.285-1.095,0.87-2.052,1.445-2.988
							c2.691-4.374,8.297-14.977,8.868-14.532L152.018,345.382z"/>
					</g>
				</g>
				<path style="fill:#407BFF;" d="M141.597,350.83c1.317,2.39,2.424,4.975,2.878,7.747c0.454,2.772,0.209,5.757-1.033,8.198
					c-1.242,2.441-3.566,4.24-6.049,4.259c-1.92,0.015-3.8-1.149-4.841-2.976c-1.148-2.017-0.309-3.849,0.567-5.823
					C135.108,357.748,138.408,354.218,141.597,350.83z"/>
				<g>
					<path style="fill:#407BFF;" d="M166.349,358.284c0.688,1.118,0.662,2.655,0.2,3.914s-1.301,2.288-2.175,3.224
						c-5.94,6.362-14.383,9.592-22.504,8.608c-0.676-0.082-1.44-0.256-1.79-0.917c-0.386-0.73-0.038-1.726,0.555-2.246
						c0.593-0.52,1.361-0.69,2.094-0.869c4.158-1.019,8.133-2.852,11.765-5.361C158.135,362.121,162.463,360.382,166.349,358.284z"
						/>
					<path style="opacity:0.1;" d="M166.349,358.284c0.688,1.118,0.662,2.655,0.2,3.914s-1.301,2.288-2.175,3.224
						c-5.94,6.362-14.383,9.592-22.504,8.608c-0.676-0.082-1.44-0.256-1.79-0.917c-0.386-0.73-0.038-1.726,0.555-2.246
						c0.593-0.52,1.361-0.69,2.094-0.869c4.158-1.019,8.133-2.852,11.765-5.361C158.135,362.121,162.463,360.382,166.349,358.284z"
						/>
				</g>
				<path style="fill:#407BFF;" d="M151.991,358.274c0.602-0.895,1.359-1.928,2.346-1.816c0.765,0.087,1.328,0.863,1.645,1.658
					c1.287,3.227-0.252,7.18-2.712,9.36c-2.46,2.18-5.617,3.007-8.664,3.776c-1.045,0.264-2.09,0.527-3.135,0.791
					c-1.244,0.314-3.74-0.105-2.629-2.073c0.744-1.319,3.236-2.071,4.39-2.851C146.609,364.837,149.604,361.822,151.991,358.274z"/>
				<path style="fill:#407BFF;" d="M164.92,371.009c-3.917,2.638-8.482,4.023-13.037,3.954c-0.548-0.008-1.113-0.042-1.606-0.315
					c-0.492-0.272-0.896-0.843-0.857-1.463c0.045-0.711,0.614-1.212,1.139-1.602c2.933-2.18,6.124-3.909,9.457-5.142
					c1.686-0.624,3.409-1.121,5.153-1.484c1.4-0.291,2.896-0.974,4.311-0.961C169.75,367.048,166.972,369.626,164.92,371.009z"/>
				<g>
					<path style="fill:#407BFF;" d="M152.29,383.088c3.844-0.277,7.53-2.032,10.696-4.523c0.604-0.475,1.265-1.236,0.997-2.013
						c-0.188-0.545-0.745-0.773-1.24-0.939c-3.637-1.219-7.353-2.449-11.142-2.284c-1.789,0.078-3.584,0.511-5.222,1.341
						c-1.279,0.649-3.93,2.241-4.304,3.962c-0.387,1.78,2.934,3.077,4.156,3.553C148.17,382.942,150.247,383.236,152.29,383.088z"/>
					<path style="opacity:0.1;" d="M152.29,383.088c3.844-0.277,7.53-2.032,10.696-4.523c0.604-0.475,1.265-1.236,0.997-2.013
						c-0.188-0.545-0.745-0.773-1.24-0.939c-3.637-1.219-7.353-2.449-11.142-2.284c-1.789,0.078-3.584,0.511-5.222,1.341
						c-1.279,0.649-3.93,2.241-4.304,3.962c-0.387,1.78,2.934,3.077,4.156,3.553C148.17,382.942,150.247,383.236,152.29,383.088z"/>
				</g>
				<g>
					<path style="fill:#407BFF;" d="M137.115,373.571c3.74-0.856,7.594-1.065,11.389-0.618c0.943,0.111,1.905,0.271,2.737,0.786
						c0.832,0.516,1.517,1.458,1.548,2.533c0.031,1.083-0.606,2.077-1.407,2.666c-0.801,0.589-1.751,0.847-2.68,1.091
						c-2.741,0.722-5.553,1.422-8.348,1.043c-2.054-0.278-4.469-1.278-5.798-3.182C132.832,375.423,135.104,374.031,137.115,373.571
						z"/>
					<path style="opacity:0.1;fill:#FFFFFF;" d="M137.115,373.571c3.74-0.856,7.594-1.065,11.389-0.618
						c0.943,0.111,1.905,0.271,2.737,0.786c0.832,0.516,1.517,1.458,1.548,2.533c0.031,1.083-0.606,2.077-1.407,2.666
						c-0.801,0.589-1.751,0.847-2.68,1.091c-2.741,0.722-5.553,1.422-8.348,1.043c-2.054-0.278-4.469-1.278-5.798-3.182
						C132.832,375.423,135.104,374.031,137.115,373.571z"/>
				</g>
				<g>
					<g>
						<path style="fill:#407BFF;" d="M125.706,373.537c-0.725-0.553-1.448-1.178-1.86-2.051s-0.431-2.06,0.175-2.774
							c0.867-1.02,5.691-2.468,6.903-2.749c1.012-0.234,2.044,0.193,3,0.637c1.382,0.642,2.746,1.333,4.089,2.072
							c0.669,0.368,1.348,0.761,1.86,1.373c0.512,0.612,0.836,1.493,0.648,2.311c-0.264,1.151-1.371,1.738-2.37,2.097
							c-2.581,0.926-5.299,1.357-8.004,1.268C130.333,375.679,126.906,374.453,125.706,373.537z"/>
					</g>
					<g style="opacity:0.1;">
						<path d="M125.706,373.537c-0.725-0.553-1.448-1.178-1.86-2.051s-0.431-2.06,0.175-2.774c0.867-1.02,5.691-2.468,6.903-2.749
							c1.012-0.234,2.044,0.193,3,0.637c1.382,0.642,2.746,1.333,4.089,2.072c0.669,0.368,1.348,0.761,1.86,1.373
							c0.512,0.612,0.836,1.493,0.648,2.311c-0.264,1.151-1.371,1.738-2.37,2.097c-2.581,0.926-5.299,1.357-8.004,1.268
							C130.333,375.679,126.906,374.453,125.706,373.537z"/>
					</g>
				</g>
				<path style="fill:#407BFF;" d="M135.501,375.439c1.186,0.364,2.318,1.175,2.876,2.417c0.558,1.243,0.397,2.938-0.559,3.814
					c-0.695,0.637-1.643,0.751-2.533,0.839c-1.098,0.109-2.196,0.218-3.294,0.328c-0.695,0.069-1.458,0.119-2.026-0.342
					c-0.767-0.623-0.833-1.866-0.827-2.936c0.006-1.021,0.018-2.073,0.37-3.013c0.45-1.203,1.29-1.808,2.384-1.634
					C133.081,375.1,134.337,375.081,135.501,375.439z"/>
				<g>
					<path style="fill:#407BFF;" d="M109.36,353.469c-1.954-2.506-4.765-4.127-7.699-4.441c-0.171-0.018-0.358-0.028-0.498,0.084
						c-0.187,0.15-0.215,0.448-0.22,0.708c-0.072,3.933,1.123,7.879,3.311,10.93c1.009,1.407,2.267,2.656,3.79,3.204
						c1.102,0.396,2.417,0.392,3.466-0.207c1.052-0.601,0.86-1.46,0.752-2.644C112.007,358.29,111.016,355.592,109.36,353.469z"/>
					<path style="opacity:0.2;" d="M109.36,353.469c-1.954-2.506-4.765-4.127-7.699-4.441c-0.171-0.018-0.358-0.028-0.498,0.084
						c-0.187,0.15-0.215,0.448-0.22,0.708c-0.072,3.933,1.123,7.879,3.311,10.93c1.009,1.407,2.267,2.656,3.79,3.204
						c1.102,0.396,2.417,0.392,3.466-0.207c1.052-0.601,0.86-1.46,0.752-2.644C112.007,358.29,111.016,355.592,109.36,353.469z"/>
				</g>
				<g>
					<path style="fill:#407BFF;" d="M128.208,355.256c-1.447-2.585-2.508-5.91-2.555-9.43c-0.039-2.951,0.633-5.832,1.598-8.316
						c0.965-2.484,2.215-4.625,3.457-6.747c0.403,6.395,0.52,12.839,0.349,19.263c-0.036,1.364-0.094,2.778-0.488,3.979
						c-0.394,1.201-1.221,2.125-2.027,1.826L128.208,355.256z"/>
				</g>
				<g>
					<path style="fill:#407BFF;" d="M122.62,335.701c2.726,4.031,4.439,9.878,4.662,15.911c0.079,2.132-0.035,4.357-0.663,6.223
						c-0.628,1.866-1.864,3.287-3.151,3.093c-1.344-0.203-2.384-2.011-3.143-3.855c-1.261-3.065-2.793-7.437-2.075-11.214
						C119.02,341.818,120.541,338.197,122.62,335.701z"/>
					<path style="opacity:0.1;" d="M122.62,335.701c2.726,4.031,4.439,9.878,4.662,15.911c0.079,2.132-0.035,4.357-0.663,6.223
						c-0.628,1.866-1.864,3.287-3.151,3.093c-1.344-0.203-2.384-2.011-3.143-3.855c-1.261-3.065-2.793-7.437-2.075-11.214
						C119.02,341.818,120.541,338.197,122.62,335.701z"/>
				</g>
				<g>
					<path style="fill:#407BFF;" d="M114.348,358.189c-2.224-2.072-3.133-5.542-3.033-8.807c0.1-3.264,1.072-6.402,2.033-9.481
						c2.168,2.973,3.936,6.323,5.222,9.896c0.493,1.369,0.92,2.799,0.949,4.277c0.029,1.478-0.389,3.026-1.359,4.012
						c-0.971,0.986-2.546,1.25-3.597,0.377c0.124,0.074,0.248,0.147,0.372,0.221L114.348,358.189z"/>
				</g>
				<g style="opacity:0.2;">
					<path d="M114.348,358.189c-2.224-2.072-3.133-5.542-3.033-8.807c0.1-3.264,1.072-6.402,2.033-9.481
						c2.168,2.973,3.936,6.323,5.222,9.896c0.493,1.369,0.92,2.799,0.949,4.277c0.029,1.478-0.389,3.026-1.359,4.012
						c-0.971,0.986-2.546,1.25-3.597,0.377c0.124,0.074,0.248,0.147,0.372,0.221L114.348,358.189z"/>
				</g>
				<g>
					<g>
						<path style="fill:#407BFF;" d="M109.275,345.382c-0.555,4.031-1.1,8.16-0.419,12.167c0.681,4.006,2.837,7.934,6.209,9.347
							c1.403,0.588,3.208,0.594,4.149-0.725c0.633-0.887,0.696-2.164,0.411-3.259c-0.285-1.095-0.87-2.052-1.446-2.988
							c-2.691-4.374-8.297-14.977-8.868-14.532L109.275,345.382z"/>
					</g>
					<g>
						<path style="fill:#407BFF;" d="M109.275,345.382c-0.555,4.031-1.1,8.16-0.419,12.167c0.681,4.006,2.837,7.934,6.209,9.347
							c1.403,0.588,3.208,0.594,4.149-0.725c0.633-0.887,0.696-2.164,0.411-3.259c-0.285-1.095-0.87-2.052-1.446-2.988
							c-2.691-4.374-8.297-14.977-8.868-14.532L109.275,345.382z"/>
					</g>
					<g style="opacity:0.1;">
						<path d="M109.275,345.382c-0.555,4.031-1.1,8.16-0.419,12.167c0.681,4.006,2.837,7.934,6.209,9.347
							c1.403,0.588,3.208,0.594,4.149-0.725c0.633-0.887,0.696-2.164,0.411-3.259c-0.285-1.095-0.87-2.052-1.446-2.988
							c-2.691-4.374-8.297-14.977-8.868-14.532L109.275,345.382z"/>
					</g>
				</g>
				<path style="fill:#407BFF;" d="M119.696,350.83c-1.317,2.39-2.424,4.975-2.878,7.747c-0.454,2.772-0.21,5.757,1.033,8.198
					c1.242,2.441,3.566,4.24,6.049,4.259c1.92,0.015,3.8-1.149,4.841-2.976c1.148-2.017,0.309-3.849-0.567-5.823
					C126.184,357.748,122.885,354.218,119.696,350.83z"/>
				<g>
					<path style="fill:#407BFF;" d="M94.933,358.599c-0.675,1.096-0.649,2.603-0.197,3.837c0.453,1.234,1.275,2.243,2.132,3.16
						c5.822,6.237,14.099,9.402,22.059,8.438c0.663-0.08,1.411-0.251,1.755-0.899c0.378-0.715,0.038-1.692-0.544-2.202
						c-0.582-0.51-1.334-0.676-2.052-0.852c-4.076-0.999-7.972-2.796-11.533-5.255C102.984,362.36,98.742,360.655,94.933,358.599z"
						/>
					<path style="opacity:0.1;" d="M94.933,358.599c-0.675,1.096-0.649,2.603-0.197,3.837c0.453,1.234,1.275,2.243,2.132,3.16
						c5.822,6.237,14.099,9.402,22.059,8.438c0.663-0.08,1.411-0.251,1.755-0.899c0.378-0.715,0.038-1.692-0.544-2.202
						c-0.582-0.51-1.334-0.676-2.052-0.852c-4.076-0.999-7.972-2.796-11.533-5.255C102.984,362.36,98.742,360.655,94.933,358.599z"
						/>
				</g>
				<path style="fill:#407BFF;" d="M108.619,357.998c-0.591-0.879-1.334-1.893-2.303-1.783c-0.751,0.086-1.303,0.848-1.614,1.628
					c-1.263,3.169,0.247,7.049,2.662,9.189c2.415,2.141,5.515,2.953,8.506,3.708c1.026,0.259,2.052,0.518,3.078,0.777
					c1.221,0.308,3.672-0.103,2.582-2.036c-0.731-1.295-3.177-2.033-4.31-2.799C113.902,364.442,110.962,361.481,108.619,357.998z"
					/>
				<g>
					<path style="fill:#407BFF;" d="M109.002,383.088c-3.844-0.277-7.53-2.032-10.696-4.523c-0.604-0.475-1.265-1.236-0.997-2.013
						c0.188-0.545,0.745-0.773,1.24-0.939c3.637-1.219,7.353-2.449,11.142-2.284c1.789,0.078,3.584,0.511,5.222,1.341
						c1.279,0.649,3.93,2.241,4.304,3.962c0.387,1.78-2.934,3.077-4.156,3.553C113.123,382.942,111.046,383.236,109.002,383.088z"/>
					<path style="opacity:0.1;" d="M109.002,383.088c-3.844-0.277-7.53-2.032-10.696-4.523c-0.604-0.475-1.265-1.236-0.997-2.013
						c0.188-0.545,0.745-0.773,1.24-0.939c3.637-1.219,7.353-2.449,11.142-2.284c1.789,0.078,3.584,0.511,5.222,1.341
						c1.279,0.649,3.93,2.241,4.304,3.962c0.387,1.78-2.934,3.077-4.156,3.553C113.123,382.942,111.046,383.236,109.002,383.088z"/>
				</g>
				<g>
					<path style="fill:#407BFF;" d="M124.178,373.571c-3.74-0.856-7.594-1.065-11.389-0.618c-0.943,0.111-1.905,0.271-2.737,0.786
						c-0.832,0.516-1.517,1.458-1.548,2.533c-0.031,1.083,0.606,2.077,1.407,2.666c0.801,0.589,1.751,0.847,2.68,1.091
						c2.742,0.722,5.553,1.422,8.348,1.043c2.054-0.278,4.469-1.278,5.798-3.182C128.46,375.423,126.188,374.031,124.178,373.571z"
						/>
					<path style="opacity:0.1;fill:#FFFFFF;" d="M124.178,373.571c-3.74-0.856-7.594-1.065-11.389-0.618
						c-0.943,0.111-1.905,0.271-2.737,0.786c-0.832,0.516-1.517,1.458-1.548,2.533c-0.031,1.083,0.606,2.077,1.407,2.666
						c0.801,0.589,1.751,0.847,2.68,1.091c2.742,0.722,5.553,1.422,8.348,1.043c2.054-0.278,4.469-1.278,5.798-3.182
						C128.46,375.423,126.188,374.031,124.178,373.571z"/>
				</g>
				<g>
					<g>
						<path style="fill:#407BFF;" d="M135.586,373.537c0.725-0.553,1.448-1.178,1.86-2.051s0.431-2.06-0.175-2.774
							c-0.867-1.02-5.691-2.468-6.903-2.749c-1.012-0.234-2.044,0.193-3,0.637c-1.382,0.642-2.746,1.333-4.089,2.072
							c-0.669,0.368-1.348,0.761-1.86,1.373c-0.512,0.612-0.836,1.493-0.648,2.311c0.264,1.151,1.371,1.738,2.37,2.097
							c2.581,0.926,5.299,1.357,8.004,1.268C130.959,375.679,134.387,374.453,135.586,373.537z"/>
					</g>
					<g style="opacity:0.1;">
						<path d="M135.586,373.537c0.725-0.553,1.448-1.178,1.86-2.051s0.431-2.06-0.175-2.774c-0.867-1.02-5.691-2.468-6.903-2.749
							c-1.012-0.234-2.044,0.193-3,0.637c-1.382,0.642-2.746,1.333-4.089,2.072c-0.669,0.368-1.348,0.761-1.86,1.373
							c-0.512,0.612-0.836,1.493-0.648,2.311c0.264,1.151,1.371,1.738,2.37,2.097c2.581,0.926,5.299,1.357,8.004,1.268
							C130.959,375.679,134.387,374.453,135.586,373.537z"/>
					</g>
				</g>
				<path style="fill:#407BFF;" d="M125.792,375.439c-1.186,0.364-2.319,1.175-2.877,2.417c-0.558,1.243-0.397,2.938,0.559,3.814
					c0.695,0.637,1.643,0.751,2.532,0.839c1.098,0.109,2.196,0.218,3.294,0.328c0.696,0.069,1.458,0.119,2.026-0.342
					c0.767-0.623,0.833-1.866,0.827-2.936c-0.006-1.021-0.018-2.073-0.37-3.013c-0.45-1.203-1.29-1.808-2.384-1.634
					C128.212,375.1,126.956,375.081,125.792,375.439z"/>
				<g>
					<path style="fill:#407BFF;" d="M131.224,351.858c-0.203-0.158-0.405-0.295-0.576-0.36c0.07-0.029,0.139-0.043,0.196-0.036
						c0.038,0,0.076,0.014,0.114,0.036h0.006c0.038,0.014,0.07,0.043,0.101,0.079c0.032,0.036,0.063,0.072,0.089,0.122
						c0.025,0.036,0.044,0.072,0.057,0.122C131.217,351.83,131.224,351.844,131.224,351.858z"/>
					<path style="opacity:0.1;fill:#407BFF;" d="M131.23,351.858h-0.006c-0.203-0.158-0.405-0.295-0.576-0.36
						c0.07-0.029,0.139-0.043,0.196-0.036c0.038,0,0.076,0.014,0.114,0.036h0.006c0.038,0.014,0.07,0.043,0.101,0.079
						c0.032,0.036,0.063,0.072,0.089,0.122c0.025,0.036,0.044,0.072,0.057,0.122C131.217,351.83,131.224,351.844,131.23,351.858z"/>
					<g>
						<g>
							<path style="fill:#407BFF;" d="M135.334,363.045c-0.412,1.107-0.937,2.193-1.704,3.027c-0.76,0.841-1.792,1.423-2.856,1.387
								c-0.044,0-0.082,0-0.127-0.007h-0.006c-0.038,0.007-0.082,0.007-0.127,0.007c-1.064,0.036-2.09-0.546-2.856-1.387
								c-0.76-0.834-1.286-1.919-1.704-3.027c-0.538-1.467-0.912-3.063-0.703-4.637c0.234-1.733,1.165-3.271,2.318-4.45
								c0.304,0,1.267-1.122,1.571-1.352c0.025-0.014,0.051-0.036,0.082-0.057c0.025-0.029,0.057-0.05,0.095-0.079
								c0.203-0.165,0.481-0.41,0.754-0.618c0.127-0.093,0.253-0.18,0.367-0.252c0.032-0.014,0.07-0.036,0.101-0.05
								c0.038-0.022,0.076-0.036,0.108-0.05c0.171,0.065,0.374,0.201,0.576,0.36h0.006c0.367,0.273,0.735,0.611,0.918,0.748
								c0.31,0.23,1.267,1.352,1.577,1.352c1.153,1.179,2.084,2.717,2.312,4.45C136.252,359.982,135.879,361.578,135.334,363.045z"
								/>
							<path style="fill:#407BFF;" d="M130.647,351.499c-0.032,0.014-0.07,0.029-0.108,0.05c-0.032,0.014-0.063,0.029-0.101,0.05
								c-0.114,0.072-0.241,0.158-0.367,0.252c0.082-0.23,0.209-0.374,0.38-0.388C130.508,351.456,130.578,351.47,130.647,351.499z"
								/>
						</g>
						<g style="opacity:0.2;">
							<path style="fill:#FFFFFF;" d="M135.334,363.045c-0.412,1.107-0.937,2.193-1.704,3.027c-0.76,0.841-1.792,1.423-2.856,1.387
								c-0.044,0-0.082,0-0.127-0.007h-0.006c-0.038,0.007-0.082,0.007-0.127,0.007c-1.064,0.036-2.09-0.546-2.856-1.387
								c-0.76-0.834-1.286-1.919-1.704-3.027c-0.538-1.467-0.912-3.063-0.703-4.637c0.234-1.733,1.165-3.271,2.318-4.45
								c0.304,0,1.267-1.122,1.571-1.352c0.19-0.137,0.57-0.482,0.931-0.755c0.209-0.158,0.405-0.288,0.576-0.352
								c0.171,0.065,0.38,0.201,0.583,0.36c0.367,0.273,0.735,0.611,0.918,0.748c0.31,0.23,1.267,1.352,1.577,1.352
								c1.153,1.179,2.084,2.717,2.312,4.45C136.252,359.982,135.879,361.578,135.334,363.045z"/>
							<path style="fill:#FFFFFF;" d="M130.647,351.499c-0.171,0.065-0.367,0.194-0.576,0.352c0.082-0.23,0.209-0.374,0.38-0.388
								C130.508,351.456,130.578,351.47,130.647,351.499z"/>
						</g>
					</g>
				</g>
				<path style="opacity:0.1;fill:#FFFFFF;" d="M131.23,351.858c-0.203-0.158-0.412-0.295-0.583-0.36
					c0.07-0.029,0.139-0.043,0.196-0.036C131.015,351.477,131.141,351.621,131.23,351.858z"/>
			</g>
		</g>
	</g>
</g>
<g id="Character">
	<g>
		<g>
			<g>
				<g>
					<path style="fill:#407BFF;" d="M320.597,261.683h27.41c0.893,0,1.294-0.723,0.897-1.616l-6.878-15.464
						c-0.397-0.893-1.442-1.616-2.335-1.616h-27.41c-0.892,0-1.294,0.723-0.897,1.616l6.878,15.464
						C318.659,260.96,319.705,261.683,320.597,261.683z"/>
					<path style="opacity:0.2;" d="M320.597,261.683h27.41c0.893,0,1.294-0.723,0.897-1.616l-6.878-15.464
						c-0.397-0.893-1.442-1.616-2.335-1.616h-27.41c-0.892,0-1.294,0.723-0.897,1.616l6.878,15.464
						C318.659,260.96,319.705,261.683,320.597,261.683z"/>
					<path style="fill:#407BFF;" d="M311.098,242.988h1.184c-0.892,0-1.294,0.723-0.897,1.616l6.878,15.464
						c0.397,0.893,1.442,1.616,2.335,1.616h-1.184c-0.893,0-1.938-0.723-2.335-1.616l-6.878-15.464
						C309.803,243.711,310.205,242.988,311.098,242.988z"/>
					<path style="opacity:0.4;" d="M311.098,242.988h1.184c-0.892,0-1.294,0.723-0.897,1.616l6.878,15.464
						c0.397,0.893,1.442,1.616,2.335,1.616h-1.184c-0.893,0-1.938-0.723-2.335-1.616l-6.878-15.464
						C309.803,243.711,310.205,242.988,311.098,242.988z"/>
				</g>
				<g>
					<polygon style="fill:#263238;" points="321.105,259.905 345.917,259.905 339.183,244.766 314.372,244.766 					"/>
					<polygon style="opacity:0.8;fill:#FFFFFF;" points="321.105,259.905 345.917,259.905 339.183,244.766 314.372,244.766 					"/>
				</g>
			</g>
			<g>
				<g>
					<polygon style="fill:#FAB27B;" points="309.852,389.4 308.173,397.311 299.577,396.184 300.827,387.403 					"/>
					<g>
						<path style="fill:#407BFF;" d="M295.21,396.181c-1.121-0.11-2.259-0.429-2.583-0.947c-0.164-0.301-0.121-0.672,0.108-0.927
							c0.175-0.233,0.434-0.388,0.722-0.434c1.546-0.266,4.514,1.839,4.645,1.932c0.074,0.053,0.106,0.146,0.082,0.233
							c-0.026,0.086-0.101,0.148-0.19,0.158C297.067,396.272,296.136,396.267,295.21,396.181z M293.949,394.286
							c-0.138-0.016-0.277-0.012-0.413,0.013c-0.181,0.013-0.346,0.108-0.448,0.258c-0.185,0.25-0.142,0.384-0.088,0.463
							c0.36,0.628,2.633,0.865,4.331,0.822C296.311,395.114,295.164,394.586,293.949,394.286z"/>
						<path style="fill:#407BFF;" d="M297.96,396.189c-0.03,0.006-0.062,0-0.088-0.017c-1.031-0.584-3.005-2.751-2.714-3.746
							c0.046-0.243,0.259-0.522,0.853-0.523c0.434-0.003,0.85,0.171,1.153,0.482c1.055,1.056,1.057,3.511,1.058,3.626
							c-0.002,0.078-0.046,0.148-0.115,0.184C298.059,396.211,298.007,396.209,297.96,396.189z M296.114,392.322l-0.121-0.023
							c-0.387-0.005-0.428,0.147-0.449,0.2c-0.115,0.606,1.155,2.274,2.208,3.045c-0.007-1.033-0.33-2.038-0.926-2.881
							C296.637,392.467,296.384,392.346,296.114,392.322L296.114,392.322z"/>
						<path style="fill:#263238;" d="M299.037,395.024l9.84,0.966c0.371,0.036,0.667,0.325,0.713,0.695l0.993,8.18
							c0.093,0.725-0.419,1.388-1.143,1.482c-0.093,0.012-0.187,0.014-0.28,0.006c-3.541-0.41-6.676-0.914-11.093-1.341
							c-5.212-0.51-3.951,0.243-10.086-0.27c-3.697-0.314-3.961-4.576-2.375-4.629c7.253-0.199,8.209-2.289,11.224-4.582
							C297.479,395.096,298.264,394.916,299.037,395.024z"/>
					</g>
					<polygon style="opacity:0.2;" points="300.17,392.018 309.147,392.722 309.852,389.4 300.827,387.403 					"/>
					<polygon style="fill:#263238;" points="307.454,323.926 298.974,386.233 312.15,387.267 327.493,325.498 					"/>
					<polygon style="opacity:0.3;" points="307.454,323.926 298.974,386.233 312.15,387.267 327.493,325.498 					"/>
					<path style="fill:#407BFF;" d="M313.356,386.354l-15.872-1.258c0,0-1.377,2.066,0.126,3.922l15.333,1.38
						C312.942,390.399,314.456,389.525,313.356,386.354z"/>
				</g>
				<g>
					<path style="fill:#FAB27B;" d="M322.605,262.353l-3.227-7.798c-0.276-0.426-0.684-0.751-1.161-0.925l-1.618-0.592
						c-0.348-0.128-0.662-0.336-0.914-0.608l-0.746-0.804c-0.677-0.731-1.742-0.954-2.655-0.555l-0.697,0.304
						c-0.706,0.308-1.224,0.941-1.364,1.698c-0.423,2.301-0.751,7.327,3.402,10.712l4.653,1.912L322.605,262.353z"/>
					<polygon style="fill:#FAB27B;" points="318.279,265.695 324.458,274.991 328.792,270.411 322.605,262.353 					"/>
				</g>
				<g>
					<g>
						<g>
							<g>
								<path style="fill:#263238;" d="M355.684,243.581c-0.319-0.634-5.287,1.217-11.097,4.136
									c-5.81,2.919-10.262,5.799-9.943,6.433s5.287-1.217,11.097-4.136C351.551,247.095,356.003,244.215,355.684,243.581z"/>
								<g>
									<path style="fill:#407BFF;" d="M348.259,245.962c0.541-0.245,1.065-0.477,1.567-0.691l1.005,2
										c-0.471,0.274-0.97,0.557-1.49,0.844L348.259,245.962z"/>
									<path style="opacity:0.5;fill:#FFFFFF;" d="M348.259,245.962c0.541-0.245,1.065-0.477,1.567-0.691l1.005,2
										c-0.471,0.274-0.97,0.557-1.49,0.844L348.259,245.962z"/>
								</g>
							</g>
							<g>
								<g>
									<path style="fill:#407BFF;" d="M353.904,243.389c0.276-1.318-4.966,1.015-5.268,1.163
										c-0.365,0.179-0.612-0.402-0.248-0.581c0.369-0.181,6.711-3.22,6.143-0.504
										C354.448,243.863,353.821,243.788,353.904,243.389L353.904,243.389z"/>
								</g>
								<g style="opacity:0.2;">
									<path d="M353.904,243.389c0.276-1.318-4.966,1.015-5.268,1.163c-0.365,0.179-0.612-0.402-0.248-0.581
										c0.369-0.181,6.711-3.22,6.143-0.504C354.448,243.863,353.821,243.788,353.904,243.389L353.904,243.389z"/>
								</g>
							</g>
						</g>
						<path style="fill:#FAB27B;" d="M354.18,264.533l-5.123-8.7c0,0,0.231-3.845-2.438-8.436c-0.187-0.321-1.922-1.722-1.922-1.722
							c-2.009,1.018-3.387,2.028-3.998,2.496c-1.857,1.423-2.352,2.46-0.076,5.926c1.894,2.884,4.132,4.491,4.132,4.491l4.838,9.864
							L354.18,264.533z"/>
						<path style="fill:#407BFF;" d="M355.33,263.484l-2.22-3.522c0,0-4.086,0.595-6.776,5.247l1.876,4.062L355.33,263.484z"/>
						<path style="fill:#263238;" d="M381.031,244.049c-3.875,0.264-7.246-0.418-13.859,20.428
							c-1.231,3.879-4.398,7.741-4.398,7.741l-7.281-9.945c0,0-4.775,0.28-8.072,6.108c0,0,5.614,18.831,16.157,17.468
							c10.543-1.364,16.42-13.463,18.746-20.684C384.651,257.943,389.605,243.465,381.031,244.049z"/>
					</g>
					<g>
						<polygon style="fill:#FAB27B;" points="362.241,234.544 361.521,240.983 372.353,241.035 372.588,232.889 						"/>
						<path style="opacity:0.2;" d="M361.979,237.654c2.729-0.723,4.551-3.945,4.551-3.945l-2.299,0.448l-1.99,0.387
							L361.979,237.654z"/>
						<path style="fill:#263238;" d="M359.282,216.432c-0.206,0.511-0.102,1.031,0.241,1.164c0.343,0.132,0.82-0.188,1.006-0.69
							c0.186-0.502,0.102-1.031-0.244-1.159C359.938,215.619,359.492,215.924,359.282,216.432z"/>
						<path style="fill:#ED893E;" d="M360.619,217.8l-4.147,3.015c0,0,0.973,1.475,3.125,1.515L360.619,217.8z"/>
						<path style="fill:#263238;" d="M361.268,213.336c0.098,0.01,0.184,0.066,0.231,0.151c0.319,0.654,0.941,1.111,1.672,1.228
							c0.16,0.014,0.276,0.151,0.262,0.309c-0.019,0.158-0.163,0.275-0.324,0.264c-0.929-0.129-1.727-0.699-2.134-1.525
							c-0.075-0.14-0.018-0.316,0.126-0.392l0.001-0.001C361.153,213.344,361.211,213.333,361.268,213.336z"/>
						<path style="fill:#FAB27B;" d="M379.991,222.363c-2.43,6.909-3.307,9.891-7.967,12.519
							c-6.601,2.177-15.195-0.467-14.928-7.951c0.237-6.734,4.162-16.877,12.027-17.814c5.606-0.666,10.704,3.226,11.387,8.693
							C380.701,219.346,380.524,220.905,379.991,222.363z"/>
						<path style="fill:#263238;" d="M383.424,228.015c-1.798,1.469-3.441,3.104-5.033,4.795c-0.968,1.028-2.123,1.88-3.399,2.484
							c-2.552,1.209-5.579,1.181-8.273,0.335c0,0-0.281,0.422,0,0c0,0-7.204-6.367-2.396-18.196c-1.84-1.308-2.966-3.563-2.905-5.82
							c0.061-2.257,1.306-4.448,3.214-5.655c2.273-1.438,5.788-0.528,7.885,1.156c2.826-0.676,5.828,0.361,7.955,2.342
							c2.126,1.981,3.456,4.672,4.424,7.412c0.827,2.342,1.428,4.867,0.924,7.299C385.519,225.616,384.622,227.036,383.424,228.015z
							"/>
						<path style="fill:#FAB27B;" d="M365.009,219.962c-1.376,0.653-2.428,1.814-2.924,3.226c-0.643,1.878,1.057,2.932,2.925,2.508
							c1.693-0.383,4.048-1.826,3.88-3.762C368.722,219.997,366.7,219.182,365.009,219.962z"/>
						<g>
							<path style="fill:#407BFF;" d="M374.734,236.759c-2.402-1.04-6.731-1.141-12.995-0.167c-0.695,0.108-1.238,0.779-1.483,1.439
								c-0.245,0.66,0.098,1.566,0.796,1.655c-0.055,0.918-0.282,1.917-0.336,2.836c1.764-0.184,3.708,0.208,5.479,0.298
								c2.829,0.143,5.629,0.634,8.419,1.125c-0.172-1.326-0.58-2.733-0.272-4.033c0.646,0.118,1.29-0.503,1.46-1.137
								C375.971,238.139,375.336,237.02,374.734,236.759z"/>
							<path style="fill:#407BFF;" d="M374.734,236.759c-2.402-1.04-6.731-1.141-12.995-0.167c-0.695,0.108-1.238,0.779-1.483,1.439
								c-0.245,0.66,0.098,1.566,0.796,1.655c-0.055,0.918-0.282,1.917-0.336,2.836c1.764-0.184,3.708,0.208,5.479,0.298
								c2.829,0.143,5.629,0.634,8.419,1.125c-0.172-1.326-0.58-2.733-0.272-4.033c0.646,0.118,1.29-0.503,1.46-1.137
								C375.971,238.139,375.336,237.02,374.734,236.759z"/>
						</g>
					</g>
					<path style="fill:#407BFF;" d="M345.164,305.362c0,0-2.227-29.707-2.088-51.136c0.103-15.807,11.444-12.965,26.045-12.891
						c11.578,0.059,15.522,1.052,17.1,7.366c1.579,6.314-6.217,56.833-6.217,56.833L345.164,305.362z"/>
					<path style="opacity:0.5;" d="M345.164,305.362c0,0-2.227-29.707-2.088-51.136c0.103-15.807,11.444-12.965,26.045-12.891
						c11.578,0.059,15.522,1.052,17.1,7.366c1.579,6.314-6.217,56.833-6.217,56.833L345.164,305.362z"/>
					<path style="fill:#407BFF;" d="M323.759,263.426c-0.821,0.039-1.787,0.29-2.676,1.034c-0.831,0.696-2.232,2.029-2.753,3.69l0,0
						c-0.965-1.616-2.291-2.986-3.873-4.006l-0.086-0.055c0.511-7.025,6.267-6.488,6.267-6.488l0.145,0.357
						C321.586,259.881,322.581,261.716,323.759,263.426z"/>
					<path style="opacity:0.2;" d="M323.759,263.426c-0.821,0.039-1.787,0.29-2.676,1.034c-0.831,0.696-2.232,2.029-2.753,3.69l0,0
						c-0.965-1.616-2.291-2.986-3.873-4.006l-0.086-0.055c0.511-7.025,6.267-6.488,6.267-6.488l0.145,0.357
						C321.586,259.881,322.581,261.716,323.759,263.426z"/>
					<g>
						<g>
							<path style="fill:#407BFF;" d="M339.101,288.39c-10.627-0.232-20.819-17.805-20.819-17.805
								c-0.251-0.86-0.193-1.681,0.048-2.435c0.522-1.662,1.923-2.995,2.753-3.69c0.889-0.744,1.855-0.995,2.676-1.034
								c1.111-0.058,1.942,0.271,1.942,0.271s7.835,9.67,9.748,8.801c1.894-0.869,2.646-4.075,3.343-8.086
								c3.724-21.424,7.821-22.068,11.413-22.163C357.661,242.054,348.51,288.593,339.101,288.39z"/>
						</g>
					</g>
					<g style="opacity:0.1;">
						<g>
							<path style="fill:#FFFFFF;" d="M339.101,288.39c-10.627-0.232-20.819-17.805-20.819-17.805
								c-0.251-0.86-0.193-1.681,0.048-2.435c0.522-1.662,1.923-2.995,2.753-3.69c0.889-0.744,1.855-0.995,2.676-1.034
								c1.111-0.058,1.942,0.271,1.942,0.271s7.835,9.67,9.748,8.801c1.894-0.869,2.646-4.075,3.343-8.086
								c3.724-21.424,7.821-22.068,11.413-22.163C357.661,242.054,348.51,288.593,339.101,288.39z"/>
						</g>
					</g>
				</g>
				<g>
					<path style="fill:#263238;" d="M380.004,305.534c0,0,0.909,9.043,0.781,12.224c-0.679,16.873-16.658,22.827-29.397,20.488
						l-45.263-4.905c-1.831,6.131-23.156,39.887-23.156,39.887l-11.211-6.437c0,0,11.623-27.868,19.126-47.259
						c4.284-11.071,38.289-11.405,51.129-9.127c3.903,1.052,3.15-5.043,3.15-5.043L380.004,305.534z"/>
					<polygon style="fill:#FAB27B;" points="280.108,373.853 275.827,380.99 267.84,377.017 271.994,368.891 					"/>
					<g>
						<path style="fill:#407BFF;" d="M263.592,375.553c-1.054-0.482-2.055-1.173-2.197-1.786c-0.06-0.348,0.107-0.695,0.415-0.866
							c0.248-0.168,0.552-0.233,0.847-0.181c1.593,0.258,3.777,3.299,3.874,3.434c0.054,0.076,0.055,0.177,0.001,0.254
							c-0.054,0.075-0.147,0.11-0.238,0.09C265.368,376.262,264.464,375.946,263.592,375.553z M262.998,373.287
							c-0.129-0.062-0.266-0.104-0.407-0.126c-0.181-0.048-0.373-0.011-0.522,0.1c-0.263,0.182-0.266,0.327-0.24,0.421
							c0.141,0.732,2.272,1.723,3.939,2.249C265.02,374.883,264.08,373.986,262.998,373.287z"/>
						<path style="fill:#407BFF;" d="M266.265,376.481c-0.032-0.005-0.06-0.021-0.08-0.046c-0.808-0.913-2.004-3.682-1.387-4.553
							c0.126-0.221,0.426-0.421,1.005-0.224c0.423,0.142,0.77,0.45,0.961,0.854c0.674,1.381-0.146,3.771-0.183,3.882
							c-0.028,0.075-0.094,0.129-0.173,0.14C266.354,376.535,266.303,376.516,266.265,376.481z M265.762,372.1l-0.11-0.063
							c-0.375-0.134-0.465,0-0.504,0.045c-0.315,0.551,0.363,2.599,1.129,3.701c0.339-1.007,0.361-2.094,0.063-3.113
							C266.223,372.417,266.017,372.214,265.762,372.1L265.762,372.1z"/>
						<path style="fill:#263238;" d="M267.703,375.707l9.252,4.232c0.349,0.159,0.54,0.539,0.461,0.914l-1.77,8.292
							c-0.152,0.737-0.872,1.211-1.608,1.059c-0.095-0.02-0.187-0.049-0.275-0.088c-3.309-1.583-6.191-3.123-10.346-5.016
							c-4.901-2.24-3.926-1.085-9.724-3.638c-3.492-1.542-2.323-5.778-0.762-5.299c7.124,2.233,8.754,0.519,12.455-0.703
							C266.162,375.256,266.987,375.344,267.703,375.707z"/>
					</g>
					<polygon style="opacity:0.2;" points="277.933,377.479 280.108,373.853 271.994,368.891 269.987,372.818 					"/>
					<path style="fill:#407BFF;" d="M284.747,373.814l-13.9-8.672c0,0-2.237,1.234-1.744,3.642l13.35,8.528
						C282.452,377.311,284.249,377.231,284.747,373.814z"/>
				</g>
			</g>
		</g>
		<g>
			<g>
				<path style="fill:#407BFF;" d="M363.35,340.86h23.047c8.885,0,16.278-6.83,16.98-15.688l3.279-41.403
					c0.532-6.711-4.771-12.45-11.503-12.45h-12.731c-14.86,0-27.956,9.756-32.209,23.994l-8.831,29.563
					c-1.48,4.956-6.039,8.352-11.211,8.352h-16.109c-4.215,0-7.633,3.417-7.633,7.633h43.343H363.35z"/>
			</g>
			<g>
				<g>
					<path style="fill:#407BFF;" d="M352.982,340.86c0.631,9.851,2.331,45.735-0.208,53.633c-2.234,6.95-12.448,8.606-18.481,12.292
						c-1.014,0.62-0.667,2.584,0.455,2.584h47.008c1.122,0,1.469-1.964,0.455-2.584c-6.033-3.685-16.247-5.341-18.481-12.292
						c-2.539-7.898-0.84-43.783-0.208-53.633H352.982z"/>
				</g>
				<path style="opacity:0.2;" d="M353.416,348.306h9.672c0.159-3.018,0.315-5.596,0.434-7.446h-10.539
					C353.101,342.71,353.257,345.288,353.416,348.306z"/>
			</g>
			<g>
				<path style="opacity:0.7;fill:#FFFFFF;" d="M363.35,340.86h23.047c8.885,0,16.278-6.83,16.98-15.688l3.279-41.403
					c0.532-6.711-4.771-12.45-11.503-12.45h-12.731c-14.86,0-27.956,9.756-32.209,23.994l-8.831,29.563
					c-1.48,4.956-6.039,8.352-11.211,8.352h-16.109c-4.215,0-7.633,3.417-7.633,7.633h43.343H363.35z"/>
			</g>
		</g>
	</g>
</g>
</svg>
