<svg width="123" height="165" viewBox="0 0 123 165" fill="none" xmlns="http://www.w3.org/2000/svg">
<path d="M12.75 12.375V145.463L50.0803 115.591C53.3217 112.998 57.3491 111.585 61.5 111.585C65.6509 111.585 69.6783 112.998 72.9197 115.591L110.25 145.45V12.375H12.75ZM6.65625 0.1875H116.344C117.96 0.1875 119.51 0.829518 120.653 1.97232C121.795 3.11512 122.438 4.66509 122.438 6.28125V158.138C122.436 159.284 122.111 160.407 121.499 161.377C120.888 162.347 120.016 163.125 118.982 163.622C117.948 164.118 116.796 164.313 115.656 164.184C114.517 164.054 113.437 163.606 112.541 162.891L65.3025 125.109C64.2227 124.247 62.8819 123.777 61.5 123.777C60.1181 123.777 58.7773 124.247 57.6975 125.109L10.4588 162.891C9.56272 163.606 8.48299 164.054 7.34365 164.184C6.20431 164.313 5.05159 164.118 4.01797 163.622C2.98435 163.125 2.11177 162.347 1.50051 161.377C0.88926 160.407 0.564132 159.284 0.5625 158.138V6.28125C0.5625 4.66509 1.20452 3.11512 2.34732 1.97232C3.49012 0.829518 5.04009 0.1875 6.65625 0.1875Z" fill="black"/>
</svg>
